M48
; DRILL file {KiCad (5.1.6)-1} date 10/22/21 00:30:32
; FORMAT={-:-/ absolute / metric / decimal}
; #@! TF.CreationDate,2021-10-22T00:30:32+09:00
; #@! TF.GenerationSoftware,Kicad,Pcbnew,(5.1.6)-1
; #@! TF.FileFunction,Plated,1,2,PTH
FMAT,2
METRIC
T1C0.300
T2C0.400
T3C0.500
T4C0.750
T5C0.800
T6C0.900
T7C1.000
T8C1.800
T9C3.500
%
G90
G05
T1
X8.6Y10.0
X12.2Y11.4
X13.2Y22.1
X13.2Y11.4
X14.0Y9.6
X14.2Y11.4
X16.0Y14.2
X18.0Y9.8
X19.0Y9.8
X19.2Y6.4
X19.4Y4.6
X19.6Y17.8
X19.6Y16.8
X19.6Y15.6
X20.0Y9.8
X20.4Y11.2
X21.0Y17.8
X21.0Y16.8
X21.0Y15.6
X24.6Y13.6
X27.0Y10.8
X27.0Y3.4
X27.8Y23.9
X28.0Y16.0
X28.4Y4.4
X30.2Y16.8
X32.4Y37.7
X33.4Y37.7
X34.8Y23.9
X35.1Y19.8
X35.1Y18.8
X35.1Y17.8
X36.0Y16.4
X36.2Y13.6
X37.0Y28.4
X37.0Y26.5
X37.0Y12.9
X37.4Y19.8
X38.0Y36.8
X38.0Y35.2
X38.4Y38.4
X38.8Y17.0
X38.8Y15.0
X39.8Y16.0
X40.0Y11.6
X40.4Y19.8
X41.0Y17.0
X41.0Y15.0
X41.0Y10.8
X41.2Y12.4
X42.4Y13.4
X42.6Y22.2
X42.6Y21.0
X43.4Y7.8
X43.4Y16.6
X43.6Y22.2
X43.6Y21.0
X44.0Y6.6
X44.6Y22.2
X44.6Y21.0
X44.95Y10.0
X46.6Y23.3
X47.0Y15.6
X47.8Y39.4
X47.8Y38.0
X48.025Y27.4
X48.2Y36.6
X48.4Y12.4
X49.8Y20.9
X49.8Y17.8
X49.8Y12.6
X50.4Y25.1
X54.05Y20.45
X54.2Y23.0
X54.4Y19.6
X55.4Y11.0
X58.6Y23.0
X59.5Y25.1
T2
X17.0Y23.9
X52.5Y45.4
X58.6Y18.8
T3
X37.905Y41.905
X38.0Y40.6
X47.755Y44.445
X54.3Y33.0
X52.3Y5.0
X53.1Y6.9
X53.1Y3.1
X55.0Y7.7
X55.0Y2.3
X56.9Y6.9
X56.9Y3.1
X57.7Y5.0
X2.0Y5.0
X2.8Y6.9
X2.8Y3.1
X4.7Y7.7
X4.7Y2.3
X6.6Y6.9
X6.6Y3.1
X7.4Y5.0
X2.3Y52.0
X3.1Y53.9
X3.1Y50.1
X5.0Y54.7
X5.0Y49.3
X6.9Y53.9
X6.9Y50.1
X7.7Y52.0
X52.3Y52.0
X53.1Y53.9
X53.1Y50.1
X55.0Y54.7
X55.0Y49.3
X56.9Y53.9
X56.9Y50.1
X57.7Y52.0
T4
X63.5Y23.7
X63.5Y21.7
X63.5Y19.7
X63.5Y17.7
X63.5Y11.7
X63.5Y9.7
X63.5Y7.7
X63.5Y5.7
T5
X33.445Y44.445
X52.276Y41.876
X52.8Y38.5
T6
X32.4Y2.9
X34.4Y2.9
X36.4Y2.9
X38.4Y2.9
X40.4Y2.9
X42.4Y2.9
T7
X18.0Y34.0
X23.0Y34.0
X18.0Y47.0
X23.0Y47.0
X7.0Y25.0
X7.0Y22.5
X7.0Y20.0
X7.0Y17.5
X7.0Y15.0
T8
X57.0Y38.98
X57.0Y35.02
X8.0Y39.0
X13.5Y39.0
T9
X55.0Y5.0
X4.7Y5.0
X5.0Y52.0
X55.0Y52.0
T0
M30
