%FSLAX45Y45*%
G04 Gerber Fmt 4.5, Leading zero omitted, Abs format (unit mm)*
G04 Created by KiCad (PCBNEW (5.1.6)-1) date 2021-10-22 00:30:33*
%MOMM*%
%LPD*%
G01*
G04 APERTURE LIST*
%TA.AperFunction,Profile*%
%ADD10C,0.050000*%
%TD*%
%ADD11C,0.200000*%
%ADD12C,0.300000*%
G04 APERTURE END LIST*
D10*
X0Y5700000D02*
X0Y0D01*
X7000000Y5700000D02*
X0Y5700000D01*
X7000000Y0D02*
X7000000Y5700000D01*
X0Y0D02*
X7000000Y0D01*
D11*
X845000Y1015000D02*
X875000Y985000D01*
X875000Y1015000D02*
X845000Y985000D01*
X1205000Y1155000D02*
X1235000Y1125000D01*
X1235000Y1155000D02*
X1205000Y1125000D01*
X1305000Y2225000D02*
X1335000Y2195000D01*
X1335000Y2225000D02*
X1305000Y2195000D01*
X1305000Y1155000D02*
X1335000Y1125000D01*
X1335000Y1155000D02*
X1305000Y1125000D01*
X1385000Y975000D02*
X1415000Y945000D01*
X1415000Y975000D02*
X1385000Y945000D01*
X1405000Y1155000D02*
X1435000Y1125000D01*
X1435000Y1155000D02*
X1405000Y1125000D01*
X1585000Y1435000D02*
X1615000Y1405000D01*
X1615000Y1435000D02*
X1585000Y1405000D01*
X1785000Y995000D02*
X1815000Y965000D01*
X1815000Y995000D02*
X1785000Y965000D01*
X1885000Y995000D02*
X1915000Y965000D01*
X1915000Y995000D02*
X1885000Y965000D01*
X1905000Y655000D02*
X1935000Y625000D01*
X1935000Y655000D02*
X1905000Y625000D01*
X1925000Y475000D02*
X1955000Y445000D01*
X1955000Y475000D02*
X1925000Y445000D01*
X1945000Y1795000D02*
X1975000Y1765000D01*
X1975000Y1795000D02*
X1945000Y1765000D01*
X1945000Y1695000D02*
X1975000Y1665000D01*
X1975000Y1695000D02*
X1945000Y1665000D01*
X1945000Y1575000D02*
X1975000Y1545000D01*
X1975000Y1575000D02*
X1945000Y1545000D01*
X1985000Y995000D02*
X2015000Y965000D01*
X2015000Y995000D02*
X1985000Y965000D01*
X2025000Y1135000D02*
X2055000Y1105000D01*
X2055000Y1135000D02*
X2025000Y1105000D01*
X2085000Y1795000D02*
X2115000Y1765000D01*
X2115000Y1795000D02*
X2085000Y1765000D01*
X2085000Y1695000D02*
X2115000Y1665000D01*
X2115000Y1695000D02*
X2085000Y1665000D01*
X2085000Y1575000D02*
X2115000Y1545000D01*
X2115000Y1575000D02*
X2085000Y1545000D01*
X2445000Y1375000D02*
X2475000Y1345000D01*
X2475000Y1375000D02*
X2445000Y1345000D01*
X2685000Y1095000D02*
X2715000Y1065000D01*
X2715000Y1095000D02*
X2685000Y1065000D01*
X2685000Y355000D02*
X2715000Y325000D01*
X2715000Y355000D02*
X2685000Y325000D01*
X2765000Y2405000D02*
X2795000Y2375000D01*
X2795000Y2405000D02*
X2765000Y2375000D01*
X2785000Y1615000D02*
X2815000Y1585000D01*
X2815000Y1615000D02*
X2785000Y1585000D01*
X2825000Y455000D02*
X2855000Y425000D01*
X2855000Y455000D02*
X2825000Y425000D01*
X3005000Y1695000D02*
X3035000Y1665000D01*
X3035000Y1695000D02*
X3005000Y1665000D01*
X3225000Y3785000D02*
X3255000Y3755000D01*
X3255000Y3785000D02*
X3225000Y3755000D01*
X3325000Y3785000D02*
X3355000Y3755000D01*
X3355000Y3785000D02*
X3325000Y3755000D01*
X3465000Y2405000D02*
X3495000Y2375000D01*
X3495000Y2405000D02*
X3465000Y2375000D01*
X3495000Y1995000D02*
X3525000Y1965000D01*
X3525000Y1995000D02*
X3495000Y1965000D01*
X3495000Y1895000D02*
X3525000Y1865000D01*
X3525000Y1895000D02*
X3495000Y1865000D01*
X3495000Y1795000D02*
X3525000Y1765000D01*
X3525000Y1795000D02*
X3495000Y1765000D01*
X3585000Y1655000D02*
X3615000Y1625000D01*
X3615000Y1655000D02*
X3585000Y1625000D01*
X3605000Y1375000D02*
X3635000Y1345000D01*
X3635000Y1375000D02*
X3605000Y1345000D01*
X3685000Y2855000D02*
X3715000Y2825000D01*
X3715000Y2855000D02*
X3685000Y2825000D01*
X3685000Y2665000D02*
X3715000Y2635000D01*
X3715000Y2665000D02*
X3685000Y2635000D01*
X3685000Y1305000D02*
X3715000Y1275000D01*
X3715000Y1305000D02*
X3685000Y1275000D01*
X3725000Y1995000D02*
X3755000Y1965000D01*
X3755000Y1995000D02*
X3725000Y1965000D01*
X3785000Y3695000D02*
X3815000Y3665000D01*
X3815000Y3695000D02*
X3785000Y3665000D01*
X3785000Y3535000D02*
X3815000Y3505000D01*
X3815000Y3535000D02*
X3785000Y3505000D01*
X3825000Y3855000D02*
X3855000Y3825000D01*
X3855000Y3855000D02*
X3825000Y3825000D01*
X3865000Y1715000D02*
X3895000Y1685000D01*
X3895000Y1715000D02*
X3865000Y1685000D01*
X3865000Y1515000D02*
X3895000Y1485000D01*
X3895000Y1515000D02*
X3865000Y1485000D01*
X3965000Y1615000D02*
X3995000Y1585000D01*
X3995000Y1615000D02*
X3965000Y1585000D01*
X3985000Y1175000D02*
X4015000Y1145000D01*
X4015000Y1175000D02*
X3985000Y1145000D01*
X4025000Y1995000D02*
X4055000Y1965000D01*
X4055000Y1995000D02*
X4025000Y1965000D01*
X4085000Y1715000D02*
X4115000Y1685000D01*
X4115000Y1715000D02*
X4085000Y1685000D01*
X4085000Y1515000D02*
X4115000Y1485000D01*
X4115000Y1515000D02*
X4085000Y1485000D01*
X4085000Y1095000D02*
X4115000Y1065000D01*
X4115000Y1095000D02*
X4085000Y1065000D01*
X4105000Y1255000D02*
X4135000Y1225000D01*
X4135000Y1255000D02*
X4105000Y1225000D01*
X4225000Y1355000D02*
X4255000Y1325000D01*
X4255000Y1355000D02*
X4225000Y1325000D01*
X4245000Y2235000D02*
X4275000Y2205000D01*
X4275000Y2235000D02*
X4245000Y2205000D01*
X4245000Y2115000D02*
X4275000Y2085000D01*
X4275000Y2115000D02*
X4245000Y2085000D01*
X4325000Y795000D02*
X4355000Y765000D01*
X4355000Y795000D02*
X4325000Y765000D01*
X4325001Y1674999D02*
X4355001Y1644999D01*
X4355001Y1674999D02*
X4325001Y1644999D01*
X4345000Y2235000D02*
X4375000Y2205000D01*
X4375000Y2235000D02*
X4345000Y2205000D01*
X4345000Y2115000D02*
X4375000Y2085000D01*
X4375000Y2115000D02*
X4345000Y2085000D01*
X4385000Y675000D02*
X4415000Y645000D01*
X4415000Y675000D02*
X4385000Y645000D01*
X4445000Y2235000D02*
X4475000Y2205000D01*
X4475000Y2235000D02*
X4445000Y2205000D01*
X4445000Y2115000D02*
X4475000Y2085000D01*
X4475000Y2115000D02*
X4445000Y2085000D01*
X4480001Y1015000D02*
X4510001Y985000D01*
X4510001Y1015000D02*
X4480001Y985000D01*
X4645000Y2345000D02*
X4675000Y2315000D01*
X4675000Y2345000D02*
X4645000Y2315000D01*
X4685000Y1575000D02*
X4715000Y1545000D01*
X4715000Y1575000D02*
X4685000Y1545000D01*
X4765000Y3955000D02*
X4795000Y3925000D01*
X4795000Y3955000D02*
X4765000Y3925000D01*
X4765000Y3815000D02*
X4795000Y3785000D01*
X4795000Y3815000D02*
X4765000Y3785000D01*
X4787500Y2755000D02*
X4817500Y2725000D01*
X4817500Y2755000D02*
X4787500Y2725000D01*
X4805000Y3675000D02*
X4835000Y3645000D01*
X4835000Y3675000D02*
X4805000Y3645000D01*
X4825000Y1255000D02*
X4855000Y1225000D01*
X4855000Y1255000D02*
X4825000Y1225000D01*
X4965000Y2105000D02*
X4995000Y2075000D01*
X4995000Y2105000D02*
X4965000Y2075000D01*
X4965000Y1795001D02*
X4995000Y1765001D01*
X4995000Y1795001D02*
X4965000Y1765001D01*
X4965000Y1275000D02*
X4995000Y1245000D01*
X4995000Y1275000D02*
X4965000Y1245000D01*
X5025000Y2525000D02*
X5055000Y2495000D01*
X5055000Y2525000D02*
X5025000Y2495000D01*
X5390000Y2060000D02*
X5420000Y2030000D01*
X5420000Y2060000D02*
X5390000Y2030000D01*
X5405000Y2315000D02*
X5435000Y2285000D01*
X5435000Y2315000D02*
X5405000Y2285000D01*
X5425000Y1975000D02*
X5455000Y1945000D01*
X5455000Y1975000D02*
X5425000Y1945000D01*
X5525000Y1115000D02*
X5555000Y1085000D01*
X5555000Y1115000D02*
X5525000Y1085000D01*
X5845000Y2315000D02*
X5875000Y2285000D01*
X5875000Y2315000D02*
X5845000Y2285000D01*
X5935000Y2525000D02*
X5965000Y2495000D01*
X5965000Y2525000D02*
X5935000Y2495000D01*
X1720000Y2390000D02*
G75*
G03*
X1720000Y2390000I-20000J0D01*
G01*
X5270000Y4540000D02*
G75*
G03*
X5270000Y4540000I-20000J0D01*
G01*
X5880000Y1880000D02*
G75*
G03*
X5880000Y1880000I-20000J0D01*
G01*
X3790501Y4215501D02*
X3790501Y4165501D01*
X3765501Y4190501D02*
X3815501Y4190501D01*
X3800000Y4085000D02*
X3800000Y4035000D01*
X3775000Y4060000D02*
X3825000Y4060000D01*
X4775500Y4469500D02*
X4775500Y4419500D01*
X4750500Y4444500D02*
X4800500Y4444500D01*
X5430000Y3325000D02*
X5430000Y3275000D01*
X5405000Y3300000D02*
X5455000Y3300000D01*
X5230000Y525000D02*
X5230000Y475000D01*
X5205000Y500000D02*
X5255000Y500000D01*
X5310000Y715000D02*
X5310000Y665000D01*
X5285000Y690000D02*
X5335000Y690000D01*
X5310000Y335000D02*
X5310000Y285000D01*
X5285000Y310000D02*
X5335000Y310000D01*
X5500000Y795000D02*
X5500000Y745000D01*
X5475000Y770000D02*
X5525000Y770000D01*
X5500000Y255000D02*
X5500000Y205000D01*
X5475000Y230000D02*
X5525000Y230000D01*
X5690000Y715000D02*
X5690000Y665000D01*
X5665000Y690000D02*
X5715000Y690000D01*
X5690000Y335000D02*
X5690000Y285000D01*
X5665000Y310000D02*
X5715000Y310000D01*
X5770000Y525000D02*
X5770000Y475000D01*
X5745000Y500000D02*
X5795000Y500000D01*
X200000Y525000D02*
X200000Y475000D01*
X175000Y500000D02*
X225000Y500000D01*
X280000Y715000D02*
X280000Y665000D01*
X255000Y690000D02*
X305000Y690000D01*
X280000Y335000D02*
X280000Y285000D01*
X255000Y310000D02*
X305000Y310000D01*
X470000Y795000D02*
X470000Y745000D01*
X445000Y770000D02*
X495000Y770000D01*
X470000Y255000D02*
X470000Y205000D01*
X445000Y230000D02*
X495000Y230000D01*
X660000Y715000D02*
X660000Y665000D01*
X635000Y690000D02*
X685000Y690000D01*
X660000Y335000D02*
X660000Y285000D01*
X635000Y310000D02*
X685000Y310000D01*
X740000Y525000D02*
X740000Y475000D01*
X715000Y500000D02*
X765000Y500000D01*
X230000Y5225000D02*
X230000Y5175000D01*
X205000Y5200000D02*
X255000Y5200000D01*
X310000Y5415000D02*
X310000Y5365000D01*
X285000Y5390000D02*
X335000Y5390000D01*
X310000Y5035000D02*
X310000Y4985000D01*
X285000Y5010000D02*
X335000Y5010000D01*
X500000Y5495000D02*
X500000Y5445000D01*
X475000Y5470000D02*
X525000Y5470000D01*
X500000Y4955000D02*
X500000Y4905000D01*
X475000Y4930000D02*
X525000Y4930000D01*
X690000Y5415000D02*
X690000Y5365000D01*
X665000Y5390000D02*
X715000Y5390000D01*
X690000Y5035000D02*
X690000Y4985000D01*
X665000Y5010000D02*
X715000Y5010000D01*
X770000Y5225000D02*
X770000Y5175000D01*
X745000Y5200000D02*
X795000Y5200000D01*
X5230000Y5225000D02*
X5230000Y5175000D01*
X5205000Y5200000D02*
X5255000Y5200000D01*
X5310000Y5415000D02*
X5310000Y5365000D01*
X5285000Y5390000D02*
X5335000Y5390000D01*
X5310000Y5035000D02*
X5310000Y4985000D01*
X5285000Y5010000D02*
X5335000Y5010000D01*
X5500000Y5495000D02*
X5500000Y5445000D01*
X5475000Y5470000D02*
X5525000Y5470000D01*
X5500000Y4955000D02*
X5500000Y4905000D01*
X5475000Y4930000D02*
X5525000Y4930000D01*
X5690000Y5415000D02*
X5690000Y5365000D01*
X5665000Y5390000D02*
X5715000Y5390000D01*
X5690000Y5035000D02*
X5690000Y4985000D01*
X5665000Y5010000D02*
X5715000Y5010000D01*
X5770000Y5225000D02*
X5770000Y5175000D01*
X5745000Y5200000D02*
X5795000Y5200000D01*
X6376517Y2343483D02*
X6376517Y2396517D01*
X6323483Y2396517D01*
X6323483Y2343483D01*
X6376517Y2343483D01*
X6376517Y2143483D02*
X6376517Y2196517D01*
X6323483Y2196517D01*
X6323483Y2143483D01*
X6376517Y2143483D01*
X6376517Y1943483D02*
X6376517Y1996517D01*
X6323483Y1996517D01*
X6323483Y1943483D01*
X6376517Y1943483D01*
X6376517Y1743483D02*
X6376517Y1796517D01*
X6323483Y1796517D01*
X6323483Y1743483D01*
X6376517Y1743483D01*
X6376517Y1143483D02*
X6376517Y1196517D01*
X6323483Y1196517D01*
X6323483Y1143483D01*
X6376517Y1143483D01*
X6376517Y943483D02*
X6376517Y996517D01*
X6323483Y996517D01*
X6323483Y943483D01*
X6376517Y943483D01*
X6376517Y743483D02*
X6376517Y796517D01*
X6323483Y796517D01*
X6323483Y743483D01*
X6376517Y743483D01*
X6376517Y543483D02*
X6376517Y596517D01*
X6323483Y596517D01*
X6323483Y543483D01*
X6376517Y543483D01*
X3344500Y4404500D02*
X3384500Y4444500D01*
X3344500Y4484500D01*
X3304500Y4444500D01*
X3344500Y4404500D01*
X5227625Y4147625D02*
X5267625Y4187625D01*
X5227625Y4227625D01*
X5187625Y4187625D01*
X5227625Y4147625D01*
X5279998Y3810000D02*
X5319998Y3850000D01*
X5279998Y3890000D01*
X5239998Y3850000D01*
X5279998Y3810000D01*
X3195000Y335000D02*
X3285000Y245000D01*
X3285000Y335000D02*
X3195000Y245000D01*
X3285000Y290000D02*
G75*
G03*
X3285000Y290000I-45000J0D01*
G01*
X3395000Y335000D02*
X3485000Y245000D01*
X3485000Y335000D02*
X3395000Y245000D01*
X3485000Y290000D02*
G75*
G03*
X3485000Y290000I-45000J0D01*
G01*
X3595000Y335000D02*
X3685000Y245000D01*
X3685000Y335000D02*
X3595000Y245000D01*
X3685000Y290000D02*
G75*
G03*
X3685000Y290000I-45000J0D01*
G01*
X3795000Y335000D02*
X3885000Y245000D01*
X3885000Y335000D02*
X3795000Y245000D01*
X3885000Y290000D02*
G75*
G03*
X3885000Y290000I-45000J0D01*
G01*
X3995000Y335000D02*
X4085000Y245000D01*
X4085000Y335000D02*
X3995000Y245000D01*
X4085000Y290000D02*
G75*
G03*
X4085000Y290000I-45000J0D01*
G01*
X4195000Y335000D02*
X4285000Y245000D01*
X4285000Y335000D02*
X4195000Y245000D01*
X4285000Y290000D02*
G75*
G03*
X4285000Y290000I-45000J0D01*
G01*
X1750000Y3450000D02*
X1850000Y3350000D01*
X1850000Y3450000D02*
X1750000Y3350000D01*
X1800000Y3450000D02*
X1800000Y3350000D01*
X1750000Y3400000D02*
X1850000Y3400000D01*
X2250000Y3450000D02*
X2350000Y3350000D01*
X2350000Y3450000D02*
X2250000Y3350000D01*
X2300000Y3450000D02*
X2300000Y3350000D01*
X2250000Y3400000D02*
X2350000Y3400000D01*
X1750000Y4750000D02*
X1850000Y4650000D01*
X1850000Y4750000D02*
X1750000Y4650000D01*
X1800000Y4750000D02*
X1800000Y4650000D01*
X1750000Y4700000D02*
X1850000Y4700000D01*
X2250000Y4750000D02*
X2350000Y4650000D01*
X2350000Y4750000D02*
X2250000Y4650000D01*
X2300000Y4750000D02*
X2300000Y4650000D01*
X2250000Y4700000D02*
X2350000Y4700000D01*
X650000Y2550000D02*
X750000Y2450000D01*
X750000Y2550000D02*
X650000Y2450000D01*
X700000Y2550000D02*
X700000Y2450000D01*
X650000Y2500000D02*
X750000Y2500000D01*
X650000Y2300000D02*
X750000Y2200000D01*
X750000Y2300000D02*
X650000Y2200000D01*
X700000Y2300000D02*
X700000Y2200000D01*
X650000Y2250000D02*
X750000Y2250000D01*
X650000Y2050000D02*
X750000Y1950000D01*
X750000Y2050000D02*
X650000Y1950000D01*
X700000Y2050000D02*
X700000Y1950000D01*
X650000Y2000000D02*
X750000Y2000000D01*
X650000Y1800000D02*
X750000Y1700000D01*
X750000Y1800000D02*
X650000Y1700000D01*
X700000Y1800000D02*
X700000Y1700000D01*
X650000Y1750000D02*
X750000Y1750000D01*
X650000Y1550000D02*
X750000Y1450000D01*
X750000Y1550000D02*
X650000Y1450000D01*
X700000Y1550000D02*
X700000Y1450000D01*
X650000Y1500000D02*
X750000Y1500000D01*
X5610000Y3988000D02*
X5790000Y3808000D01*
X5790000Y3988000D02*
X5610000Y3808000D01*
X5763640Y3834360D02*
X5763640Y3961640D01*
X5636360Y3961640D01*
X5636360Y3834360D01*
X5763640Y3834360D01*
X5610000Y3592000D02*
X5790000Y3412000D01*
X5790000Y3592000D02*
X5610000Y3412000D01*
X5763640Y3438360D02*
X5763640Y3565640D01*
X5636360Y3565640D01*
X5636360Y3438360D01*
X5763640Y3438360D01*
X710000Y3990000D02*
X890000Y3810000D01*
X890000Y3990000D02*
X710000Y3810000D01*
X863640Y3836360D02*
X863640Y3963640D01*
X736360Y3963640D01*
X736360Y3836360D01*
X863640Y3836360D01*
X1260000Y3990000D02*
X1440000Y3810000D01*
X1440000Y3990000D02*
X1260000Y3810000D01*
X1413640Y3836360D02*
X1413640Y3963640D01*
X1286360Y3963640D01*
X1286360Y3836360D01*
X1413640Y3836360D01*
X5325000Y675000D02*
X5675000Y325000D01*
X5675000Y675000D02*
X5325000Y325000D01*
X5500000Y325000D02*
X5675000Y500000D01*
X5500000Y675000D01*
X5325000Y500000D01*
X5500000Y325000D01*
X295000Y675000D02*
X645000Y325000D01*
X645000Y675000D02*
X295000Y325000D01*
X470000Y325000D02*
X645000Y500000D01*
X470000Y675000D01*
X295000Y500000D01*
X470000Y325000D01*
X325000Y5375000D02*
X675000Y5025000D01*
X675000Y5375000D02*
X325000Y5025000D01*
X500000Y5025000D02*
X675000Y5200000D01*
X500000Y5375000D01*
X325000Y5200000D01*
X500000Y5025000D01*
X5325000Y5375000D02*
X5675000Y5025000D01*
X5675000Y5375000D02*
X5325000Y5025000D01*
X5500000Y5025000D02*
X5675000Y5200000D01*
X5500000Y5375000D01*
X5325000Y5200000D01*
X5500000Y5025000D01*
D12*
X283928Y-468214D02*
X283928Y-168214D01*
X355357Y-168214D01*
X398214Y-182500D01*
X426786Y-211071D01*
X441071Y-239643D01*
X455357Y-296786D01*
X455357Y-339643D01*
X441071Y-396786D01*
X426786Y-425357D01*
X398214Y-453929D01*
X355357Y-468214D01*
X283928Y-468214D01*
X583928Y-468214D02*
X583928Y-268214D01*
X583928Y-325357D02*
X598214Y-296786D01*
X612500Y-282500D01*
X641071Y-268214D01*
X669643Y-268214D01*
X769643Y-468214D02*
X769643Y-268214D01*
X769643Y-168214D02*
X755357Y-182500D01*
X769643Y-196786D01*
X783928Y-182500D01*
X769643Y-168214D01*
X769643Y-196786D01*
X955357Y-468214D02*
X926786Y-453929D01*
X912500Y-425357D01*
X912500Y-168214D01*
X1112500Y-468214D02*
X1083928Y-453929D01*
X1069643Y-425357D01*
X1069643Y-168214D01*
X1455357Y-468214D02*
X1455357Y-168214D01*
X1555357Y-382500D01*
X1655357Y-168214D01*
X1655357Y-468214D01*
X1926786Y-468214D02*
X1926786Y-311072D01*
X1912500Y-282500D01*
X1883928Y-268214D01*
X1826786Y-268214D01*
X1798214Y-282500D01*
X1926786Y-453929D02*
X1898214Y-468214D01*
X1826786Y-468214D01*
X1798214Y-453929D01*
X1783928Y-425357D01*
X1783928Y-396786D01*
X1798214Y-368214D01*
X1826786Y-353929D01*
X1898214Y-353929D01*
X1926786Y-339643D01*
X2069643Y-268214D02*
X2069643Y-568214D01*
X2069643Y-282500D02*
X2098214Y-268214D01*
X2155357Y-268214D01*
X2183928Y-282500D01*
X2198214Y-296786D01*
X2212500Y-325357D01*
X2212500Y-411071D01*
X2198214Y-439643D01*
X2183928Y-453929D01*
X2155357Y-468214D01*
X2098214Y-468214D01*
X2069643Y-453929D01*
X2341071Y-439643D02*
X2355357Y-453929D01*
X2341071Y-468214D01*
X2326786Y-453929D01*
X2341071Y-439643D01*
X2341071Y-468214D01*
X2341071Y-282500D02*
X2355357Y-296786D01*
X2341071Y-311072D01*
X2326786Y-296786D01*
X2341071Y-282500D01*
X2341071Y-311072D01*
X-32500Y-947500D02*
X-2500Y-977500D01*
X-2500Y-947500D02*
X-32500Y-977500D01*
X341071Y-798214D02*
X369643Y-798214D01*
X398214Y-812500D01*
X412500Y-826786D01*
X426786Y-855357D01*
X441071Y-912500D01*
X441071Y-983929D01*
X426786Y-1041071D01*
X412500Y-1069643D01*
X398214Y-1083929D01*
X369643Y-1098214D01*
X341071Y-1098214D01*
X312500Y-1083929D01*
X298214Y-1069643D01*
X283928Y-1041071D01*
X269643Y-983929D01*
X269643Y-912500D01*
X283928Y-855357D01*
X298214Y-826786D01*
X312500Y-812500D01*
X341071Y-798214D01*
X569643Y-1069643D02*
X583928Y-1083929D01*
X569643Y-1098214D01*
X555357Y-1083929D01*
X569643Y-1069643D01*
X569643Y-1098214D01*
X683928Y-798214D02*
X869643Y-798214D01*
X769643Y-912500D01*
X812500Y-912500D01*
X841071Y-926786D01*
X855357Y-941071D01*
X869643Y-969643D01*
X869643Y-1041071D01*
X855357Y-1069643D01*
X841071Y-1083929D01*
X812500Y-1098214D01*
X726786Y-1098214D01*
X698214Y-1083929D01*
X683928Y-1069643D01*
X1055357Y-798214D02*
X1083928Y-798214D01*
X1112500Y-812500D01*
X1126786Y-826786D01*
X1141071Y-855357D01*
X1155357Y-912500D01*
X1155357Y-983929D01*
X1141071Y-1041071D01*
X1126786Y-1069643D01*
X1112500Y-1083929D01*
X1083928Y-1098214D01*
X1055357Y-1098214D01*
X1026786Y-1083929D01*
X1012500Y-1069643D01*
X998214Y-1041071D01*
X983928Y-983929D01*
X983928Y-912500D01*
X998214Y-855357D01*
X1012500Y-826786D01*
X1026786Y-812500D01*
X1055357Y-798214D01*
X1283928Y-1098214D02*
X1283928Y-898214D01*
X1283928Y-926786D02*
X1298214Y-912500D01*
X1326786Y-898214D01*
X1369643Y-898214D01*
X1398214Y-912500D01*
X1412500Y-941071D01*
X1412500Y-1098214D01*
X1412500Y-941071D02*
X1426786Y-912500D01*
X1455357Y-898214D01*
X1498214Y-898214D01*
X1526786Y-912500D01*
X1541071Y-941071D01*
X1541071Y-1098214D01*
X1683928Y-1098214D02*
X1683928Y-898214D01*
X1683928Y-926786D02*
X1698214Y-912500D01*
X1726786Y-898214D01*
X1769643Y-898214D01*
X1798214Y-912500D01*
X1812500Y-941071D01*
X1812500Y-1098214D01*
X1812500Y-941071D02*
X1826786Y-912500D01*
X1855357Y-898214D01*
X1898214Y-898214D01*
X1926786Y-912500D01*
X1941071Y-941071D01*
X1941071Y-1098214D01*
X2526786Y-783929D02*
X2269643Y-1169643D01*
X2912500Y-798214D02*
X2941071Y-798214D01*
X2969643Y-812500D01*
X2983928Y-826786D01*
X2998214Y-855357D01*
X3012500Y-912500D01*
X3012500Y-983929D01*
X2998214Y-1041071D01*
X2983928Y-1069643D01*
X2969643Y-1083929D01*
X2941071Y-1098214D01*
X2912500Y-1098214D01*
X2883928Y-1083929D01*
X2869643Y-1069643D01*
X2855357Y-1041071D01*
X2841071Y-983929D01*
X2841071Y-912500D01*
X2855357Y-855357D01*
X2869643Y-826786D01*
X2883928Y-812500D01*
X2912500Y-798214D01*
X3141071Y-1069643D02*
X3155357Y-1083929D01*
X3141071Y-1098214D01*
X3126786Y-1083929D01*
X3141071Y-1069643D01*
X3141071Y-1098214D01*
X3341071Y-798214D02*
X3369643Y-798214D01*
X3398214Y-812500D01*
X3412500Y-826786D01*
X3426786Y-855357D01*
X3441071Y-912500D01*
X3441071Y-983929D01*
X3426786Y-1041071D01*
X3412500Y-1069643D01*
X3398214Y-1083929D01*
X3369643Y-1098214D01*
X3341071Y-1098214D01*
X3312500Y-1083929D01*
X3298214Y-1069643D01*
X3283928Y-1041071D01*
X3269643Y-983929D01*
X3269643Y-912500D01*
X3283928Y-855357D01*
X3298214Y-826786D01*
X3312500Y-812500D01*
X3341071Y-798214D01*
X3726786Y-1098214D02*
X3555357Y-1098214D01*
X3641071Y-1098214D02*
X3641071Y-798214D01*
X3612500Y-841071D01*
X3583928Y-869643D01*
X3555357Y-883929D01*
X3841071Y-826786D02*
X3855357Y-812500D01*
X3883928Y-798214D01*
X3955357Y-798214D01*
X3983928Y-812500D01*
X3998214Y-826786D01*
X4012500Y-855357D01*
X4012500Y-883929D01*
X3998214Y-926786D01*
X3826786Y-1098214D01*
X4012500Y-1098214D01*
X4126786Y-798214D02*
X4126786Y-855357D01*
X4241071Y-798214D02*
X4241071Y-855357D01*
X4683928Y-1212500D02*
X4669643Y-1198214D01*
X4641071Y-1155357D01*
X4626786Y-1126786D01*
X4612500Y-1083929D01*
X4598214Y-1012500D01*
X4598214Y-955357D01*
X4612500Y-883929D01*
X4626786Y-841071D01*
X4641071Y-812500D01*
X4669643Y-769643D01*
X4683928Y-755357D01*
X4769643Y-798214D02*
X4969643Y-798214D01*
X4841071Y-1098214D01*
X5126786Y-926786D02*
X5098214Y-912500D01*
X5083928Y-898214D01*
X5069643Y-869643D01*
X5069643Y-855357D01*
X5083928Y-826786D01*
X5098214Y-812500D01*
X5126786Y-798214D01*
X5183928Y-798214D01*
X5212500Y-812500D01*
X5226786Y-826786D01*
X5241071Y-855357D01*
X5241071Y-869643D01*
X5226786Y-898214D01*
X5212500Y-912500D01*
X5183928Y-926786D01*
X5126786Y-926786D01*
X5098214Y-941071D01*
X5083928Y-955357D01*
X5069643Y-983929D01*
X5069643Y-1041071D01*
X5083928Y-1069643D01*
X5098214Y-1083929D01*
X5126786Y-1098214D01*
X5183928Y-1098214D01*
X5212500Y-1083929D01*
X5226786Y-1069643D01*
X5241071Y-1041071D01*
X5241071Y-983929D01*
X5226786Y-955357D01*
X5212500Y-941071D01*
X5183928Y-926786D01*
X5598214Y-1098214D02*
X5598214Y-798214D01*
X5726786Y-1098214D02*
X5726786Y-941071D01*
X5712500Y-912500D01*
X5683928Y-898214D01*
X5641071Y-898214D01*
X5612500Y-912500D01*
X5598214Y-926786D01*
X5912500Y-1098214D02*
X5883928Y-1083929D01*
X5869643Y-1069643D01*
X5855357Y-1041071D01*
X5855357Y-955357D01*
X5869643Y-926786D01*
X5883928Y-912500D01*
X5912500Y-898214D01*
X5955357Y-898214D01*
X5983928Y-912500D01*
X5998214Y-926786D01*
X6012500Y-955357D01*
X6012500Y-1041071D01*
X5998214Y-1069643D01*
X5983928Y-1083929D01*
X5955357Y-1098214D01*
X5912500Y-1098214D01*
X6183928Y-1098214D02*
X6155357Y-1083929D01*
X6141071Y-1055357D01*
X6141071Y-798214D01*
X6412500Y-1083929D02*
X6383928Y-1098214D01*
X6326786Y-1098214D01*
X6298214Y-1083929D01*
X6283928Y-1055357D01*
X6283928Y-941071D01*
X6298214Y-912500D01*
X6326786Y-898214D01*
X6383928Y-898214D01*
X6412500Y-912500D01*
X6426786Y-941071D01*
X6426786Y-969643D01*
X6283928Y-998214D01*
X6541071Y-1083929D02*
X6569643Y-1098214D01*
X6626786Y-1098214D01*
X6655357Y-1083929D01*
X6669643Y-1055357D01*
X6669643Y-1041071D01*
X6655357Y-1012500D01*
X6626786Y-998214D01*
X6583928Y-998214D01*
X6555357Y-983929D01*
X6541071Y-955357D01*
X6541071Y-941071D01*
X6555357Y-912500D01*
X6583928Y-898214D01*
X6626786Y-898214D01*
X6655357Y-912500D01*
X6769643Y-1212500D02*
X6783928Y-1198214D01*
X6812500Y-1155357D01*
X6826786Y-1126786D01*
X6841071Y-1083929D01*
X6855357Y-1012500D01*
X6855357Y-955357D01*
X6841071Y-883929D01*
X6826786Y-841071D01*
X6812500Y-812500D01*
X6783928Y-769643D01*
X6769643Y-755357D01*
X-2500Y-1358500D02*
G75*
G03*
X-2500Y-1358500I-20000J0D01*
G01*
X341071Y-1194214D02*
X369643Y-1194214D01*
X398214Y-1208500D01*
X412500Y-1222786D01*
X426786Y-1251357D01*
X441071Y-1308500D01*
X441071Y-1379929D01*
X426786Y-1437071D01*
X412500Y-1465643D01*
X398214Y-1479929D01*
X369643Y-1494214D01*
X341071Y-1494214D01*
X312500Y-1479929D01*
X298214Y-1465643D01*
X283928Y-1437071D01*
X269643Y-1379929D01*
X269643Y-1308500D01*
X283928Y-1251357D01*
X298214Y-1222786D01*
X312500Y-1208500D01*
X341071Y-1194214D01*
X569643Y-1465643D02*
X583928Y-1479929D01*
X569643Y-1494214D01*
X555357Y-1479929D01*
X569643Y-1465643D01*
X569643Y-1494214D01*
X841071Y-1294214D02*
X841071Y-1494214D01*
X769643Y-1179929D02*
X698214Y-1394214D01*
X883928Y-1394214D01*
X1055357Y-1194214D02*
X1083928Y-1194214D01*
X1112500Y-1208500D01*
X1126786Y-1222786D01*
X1141071Y-1251357D01*
X1155357Y-1308500D01*
X1155357Y-1379929D01*
X1141071Y-1437071D01*
X1126786Y-1465643D01*
X1112500Y-1479929D01*
X1083928Y-1494214D01*
X1055357Y-1494214D01*
X1026786Y-1479929D01*
X1012500Y-1465643D01*
X998214Y-1437071D01*
X983928Y-1379929D01*
X983928Y-1308500D01*
X998214Y-1251357D01*
X1012500Y-1222786D01*
X1026786Y-1208500D01*
X1055357Y-1194214D01*
X1283928Y-1494214D02*
X1283928Y-1294214D01*
X1283928Y-1322786D02*
X1298214Y-1308500D01*
X1326786Y-1294214D01*
X1369643Y-1294214D01*
X1398214Y-1308500D01*
X1412500Y-1337072D01*
X1412500Y-1494214D01*
X1412500Y-1337072D02*
X1426786Y-1308500D01*
X1455357Y-1294214D01*
X1498214Y-1294214D01*
X1526786Y-1308500D01*
X1541071Y-1337072D01*
X1541071Y-1494214D01*
X1683928Y-1494214D02*
X1683928Y-1294214D01*
X1683928Y-1322786D02*
X1698214Y-1308500D01*
X1726786Y-1294214D01*
X1769643Y-1294214D01*
X1798214Y-1308500D01*
X1812500Y-1337072D01*
X1812500Y-1494214D01*
X1812500Y-1337072D02*
X1826786Y-1308500D01*
X1855357Y-1294214D01*
X1898214Y-1294214D01*
X1926786Y-1308500D01*
X1941071Y-1337072D01*
X1941071Y-1494214D01*
X2526786Y-1179929D02*
X2269643Y-1565643D01*
X2912500Y-1194214D02*
X2941071Y-1194214D01*
X2969643Y-1208500D01*
X2983928Y-1222786D01*
X2998214Y-1251357D01*
X3012500Y-1308500D01*
X3012500Y-1379929D01*
X2998214Y-1437071D01*
X2983928Y-1465643D01*
X2969643Y-1479929D01*
X2941071Y-1494214D01*
X2912500Y-1494214D01*
X2883928Y-1479929D01*
X2869643Y-1465643D01*
X2855357Y-1437071D01*
X2841071Y-1379929D01*
X2841071Y-1308500D01*
X2855357Y-1251357D01*
X2869643Y-1222786D01*
X2883928Y-1208500D01*
X2912500Y-1194214D01*
X3141071Y-1465643D02*
X3155357Y-1479929D01*
X3141071Y-1494214D01*
X3126786Y-1479929D01*
X3141071Y-1465643D01*
X3141071Y-1494214D01*
X3341071Y-1194214D02*
X3369643Y-1194214D01*
X3398214Y-1208500D01*
X3412500Y-1222786D01*
X3426786Y-1251357D01*
X3441071Y-1308500D01*
X3441071Y-1379929D01*
X3426786Y-1437071D01*
X3412500Y-1465643D01*
X3398214Y-1479929D01*
X3369643Y-1494214D01*
X3341071Y-1494214D01*
X3312500Y-1479929D01*
X3298214Y-1465643D01*
X3283928Y-1437071D01*
X3269643Y-1379929D01*
X3269643Y-1308500D01*
X3283928Y-1251357D01*
X3298214Y-1222786D01*
X3312500Y-1208500D01*
X3341071Y-1194214D01*
X3726786Y-1494214D02*
X3555357Y-1494214D01*
X3641071Y-1494214D02*
X3641071Y-1194214D01*
X3612500Y-1237072D01*
X3583928Y-1265643D01*
X3555357Y-1279929D01*
X3983928Y-1194214D02*
X3926786Y-1194214D01*
X3898214Y-1208500D01*
X3883928Y-1222786D01*
X3855357Y-1265643D01*
X3841071Y-1322786D01*
X3841071Y-1437071D01*
X3855357Y-1465643D01*
X3869643Y-1479929D01*
X3898214Y-1494214D01*
X3955357Y-1494214D01*
X3983928Y-1479929D01*
X3998214Y-1465643D01*
X4012500Y-1437071D01*
X4012500Y-1365643D01*
X3998214Y-1337072D01*
X3983928Y-1322786D01*
X3955357Y-1308500D01*
X3898214Y-1308500D01*
X3869643Y-1322786D01*
X3855357Y-1337072D01*
X3841071Y-1365643D01*
X4126786Y-1194214D02*
X4126786Y-1251357D01*
X4241071Y-1194214D02*
X4241071Y-1251357D01*
X4683928Y-1608500D02*
X4669643Y-1594214D01*
X4641071Y-1551357D01*
X4626786Y-1522786D01*
X4612500Y-1479929D01*
X4598214Y-1408500D01*
X4598214Y-1351357D01*
X4612500Y-1279929D01*
X4626786Y-1237072D01*
X4641071Y-1208500D01*
X4669643Y-1165643D01*
X4683928Y-1151357D01*
X4769643Y-1194214D02*
X4955357Y-1194214D01*
X4855357Y-1308500D01*
X4898214Y-1308500D01*
X4926786Y-1322786D01*
X4941071Y-1337072D01*
X4955357Y-1365643D01*
X4955357Y-1437071D01*
X4941071Y-1465643D01*
X4926786Y-1479929D01*
X4898214Y-1494214D01*
X4812500Y-1494214D01*
X4783928Y-1479929D01*
X4769643Y-1465643D01*
X5312500Y-1494214D02*
X5312500Y-1194214D01*
X5441071Y-1494214D02*
X5441071Y-1337072D01*
X5426786Y-1308500D01*
X5398214Y-1294214D01*
X5355357Y-1294214D01*
X5326786Y-1308500D01*
X5312500Y-1322786D01*
X5626786Y-1494214D02*
X5598214Y-1479929D01*
X5583928Y-1465643D01*
X5569643Y-1437071D01*
X5569643Y-1351357D01*
X5583928Y-1322786D01*
X5598214Y-1308500D01*
X5626786Y-1294214D01*
X5669643Y-1294214D01*
X5698214Y-1308500D01*
X5712500Y-1322786D01*
X5726786Y-1351357D01*
X5726786Y-1437071D01*
X5712500Y-1465643D01*
X5698214Y-1479929D01*
X5669643Y-1494214D01*
X5626786Y-1494214D01*
X5898214Y-1494214D02*
X5869643Y-1479929D01*
X5855357Y-1451357D01*
X5855357Y-1194214D01*
X6126786Y-1479929D02*
X6098214Y-1494214D01*
X6041071Y-1494214D01*
X6012500Y-1479929D01*
X5998214Y-1451357D01*
X5998214Y-1337072D01*
X6012500Y-1308500D01*
X6041071Y-1294214D01*
X6098214Y-1294214D01*
X6126786Y-1308500D01*
X6141071Y-1337072D01*
X6141071Y-1365643D01*
X5998214Y-1394214D01*
X6255357Y-1479929D02*
X6283928Y-1494214D01*
X6341071Y-1494214D01*
X6369643Y-1479929D01*
X6383928Y-1451357D01*
X6383928Y-1437071D01*
X6369643Y-1408500D01*
X6341071Y-1394214D01*
X6298214Y-1394214D01*
X6269643Y-1379929D01*
X6255357Y-1351357D01*
X6255357Y-1337072D01*
X6269643Y-1308500D01*
X6298214Y-1294214D01*
X6341071Y-1294214D01*
X6369643Y-1308500D01*
X6483928Y-1608500D02*
X6498214Y-1594214D01*
X6526786Y-1551357D01*
X6541071Y-1522786D01*
X6555357Y-1479929D01*
X6569643Y-1408500D01*
X6569643Y-1351357D01*
X6555357Y-1279929D01*
X6541071Y-1237072D01*
X6526786Y-1208500D01*
X6498214Y-1165643D01*
X6483928Y-1151357D01*
X-27500Y-1729500D02*
X-27500Y-1779500D01*
X-52500Y-1754500D02*
X-2500Y-1754500D01*
X341071Y-1590214D02*
X369643Y-1590214D01*
X398214Y-1604500D01*
X412500Y-1618786D01*
X426786Y-1647357D01*
X441071Y-1704500D01*
X441071Y-1775929D01*
X426786Y-1833071D01*
X412500Y-1861643D01*
X398214Y-1875929D01*
X369643Y-1890214D01*
X341071Y-1890214D01*
X312500Y-1875929D01*
X298214Y-1861643D01*
X283928Y-1833071D01*
X269643Y-1775929D01*
X269643Y-1704500D01*
X283928Y-1647357D01*
X298214Y-1618786D01*
X312500Y-1604500D01*
X341071Y-1590214D01*
X569643Y-1861643D02*
X583928Y-1875929D01*
X569643Y-1890214D01*
X555357Y-1875929D01*
X569643Y-1861643D01*
X569643Y-1890214D01*
X855357Y-1590214D02*
X712500Y-1590214D01*
X698214Y-1733071D01*
X712500Y-1718786D01*
X741071Y-1704500D01*
X812500Y-1704500D01*
X841071Y-1718786D01*
X855357Y-1733071D01*
X869643Y-1761643D01*
X869643Y-1833071D01*
X855357Y-1861643D01*
X841071Y-1875929D01*
X812500Y-1890214D01*
X741071Y-1890214D01*
X712500Y-1875929D01*
X698214Y-1861643D01*
X1055357Y-1590214D02*
X1083928Y-1590214D01*
X1112500Y-1604500D01*
X1126786Y-1618786D01*
X1141071Y-1647357D01*
X1155357Y-1704500D01*
X1155357Y-1775929D01*
X1141071Y-1833071D01*
X1126786Y-1861643D01*
X1112500Y-1875929D01*
X1083928Y-1890214D01*
X1055357Y-1890214D01*
X1026786Y-1875929D01*
X1012500Y-1861643D01*
X998214Y-1833071D01*
X983928Y-1775929D01*
X983928Y-1704500D01*
X998214Y-1647357D01*
X1012500Y-1618786D01*
X1026786Y-1604500D01*
X1055357Y-1590214D01*
X1283928Y-1890214D02*
X1283928Y-1690214D01*
X1283928Y-1718786D02*
X1298214Y-1704500D01*
X1326786Y-1690214D01*
X1369643Y-1690214D01*
X1398214Y-1704500D01*
X1412500Y-1733071D01*
X1412500Y-1890214D01*
X1412500Y-1733071D02*
X1426786Y-1704500D01*
X1455357Y-1690214D01*
X1498214Y-1690214D01*
X1526786Y-1704500D01*
X1541071Y-1733071D01*
X1541071Y-1890214D01*
X1683928Y-1890214D02*
X1683928Y-1690214D01*
X1683928Y-1718786D02*
X1698214Y-1704500D01*
X1726786Y-1690214D01*
X1769643Y-1690214D01*
X1798214Y-1704500D01*
X1812500Y-1733071D01*
X1812500Y-1890214D01*
X1812500Y-1733071D02*
X1826786Y-1704500D01*
X1855357Y-1690214D01*
X1898214Y-1690214D01*
X1926786Y-1704500D01*
X1941071Y-1733071D01*
X1941071Y-1890214D01*
X2526786Y-1575929D02*
X2269643Y-1961643D01*
X2912500Y-1590214D02*
X2941071Y-1590214D01*
X2969643Y-1604500D01*
X2983928Y-1618786D01*
X2998214Y-1647357D01*
X3012500Y-1704500D01*
X3012500Y-1775929D01*
X2998214Y-1833071D01*
X2983928Y-1861643D01*
X2969643Y-1875929D01*
X2941071Y-1890214D01*
X2912500Y-1890214D01*
X2883928Y-1875929D01*
X2869643Y-1861643D01*
X2855357Y-1833071D01*
X2841071Y-1775929D01*
X2841071Y-1704500D01*
X2855357Y-1647357D01*
X2869643Y-1618786D01*
X2883928Y-1604500D01*
X2912500Y-1590214D01*
X3141071Y-1861643D02*
X3155357Y-1875929D01*
X3141071Y-1890214D01*
X3126786Y-1875929D01*
X3141071Y-1861643D01*
X3141071Y-1890214D01*
X3341071Y-1590214D02*
X3369643Y-1590214D01*
X3398214Y-1604500D01*
X3412500Y-1618786D01*
X3426786Y-1647357D01*
X3441071Y-1704500D01*
X3441071Y-1775929D01*
X3426786Y-1833071D01*
X3412500Y-1861643D01*
X3398214Y-1875929D01*
X3369643Y-1890214D01*
X3341071Y-1890214D01*
X3312500Y-1875929D01*
X3298214Y-1861643D01*
X3283928Y-1833071D01*
X3269643Y-1775929D01*
X3269643Y-1704500D01*
X3283928Y-1647357D01*
X3298214Y-1618786D01*
X3312500Y-1604500D01*
X3341071Y-1590214D01*
X3555357Y-1618786D02*
X3569643Y-1604500D01*
X3598214Y-1590214D01*
X3669643Y-1590214D01*
X3698214Y-1604500D01*
X3712500Y-1618786D01*
X3726786Y-1647357D01*
X3726786Y-1675929D01*
X3712500Y-1718786D01*
X3541071Y-1890214D01*
X3726786Y-1890214D01*
X3912500Y-1590214D02*
X3941071Y-1590214D01*
X3969643Y-1604500D01*
X3983928Y-1618786D01*
X3998214Y-1647357D01*
X4012500Y-1704500D01*
X4012500Y-1775929D01*
X3998214Y-1833071D01*
X3983928Y-1861643D01*
X3969643Y-1875929D01*
X3941071Y-1890214D01*
X3912500Y-1890214D01*
X3883928Y-1875929D01*
X3869643Y-1861643D01*
X3855357Y-1833071D01*
X3841071Y-1775929D01*
X3841071Y-1704500D01*
X3855357Y-1647357D01*
X3869643Y-1618786D01*
X3883928Y-1604500D01*
X3912500Y-1590214D01*
X4126786Y-1590214D02*
X4126786Y-1647357D01*
X4241071Y-1590214D02*
X4241071Y-1647357D01*
X4683928Y-2004500D02*
X4669643Y-1990214D01*
X4641071Y-1947357D01*
X4626786Y-1918786D01*
X4612500Y-1875929D01*
X4598214Y-1804500D01*
X4598214Y-1747357D01*
X4612500Y-1675929D01*
X4626786Y-1633071D01*
X4641071Y-1604500D01*
X4669643Y-1561643D01*
X4683928Y-1547357D01*
X4769643Y-1590214D02*
X4955357Y-1590214D01*
X4855357Y-1704500D01*
X4898214Y-1704500D01*
X4926786Y-1718786D01*
X4941071Y-1733071D01*
X4955357Y-1761643D01*
X4955357Y-1833071D01*
X4941071Y-1861643D01*
X4926786Y-1875929D01*
X4898214Y-1890214D01*
X4812500Y-1890214D01*
X4783928Y-1875929D01*
X4769643Y-1861643D01*
X5212500Y-1590214D02*
X5155357Y-1590214D01*
X5126786Y-1604500D01*
X5112500Y-1618786D01*
X5083928Y-1661643D01*
X5069643Y-1718786D01*
X5069643Y-1833071D01*
X5083928Y-1861643D01*
X5098214Y-1875929D01*
X5126786Y-1890214D01*
X5183928Y-1890214D01*
X5212500Y-1875929D01*
X5226786Y-1861643D01*
X5241071Y-1833071D01*
X5241071Y-1761643D01*
X5226786Y-1733071D01*
X5212500Y-1718786D01*
X5183928Y-1704500D01*
X5126786Y-1704500D01*
X5098214Y-1718786D01*
X5083928Y-1733071D01*
X5069643Y-1761643D01*
X5598214Y-1890214D02*
X5598214Y-1590214D01*
X5726786Y-1890214D02*
X5726786Y-1733071D01*
X5712500Y-1704500D01*
X5683928Y-1690214D01*
X5641071Y-1690214D01*
X5612500Y-1704500D01*
X5598214Y-1718786D01*
X5912500Y-1890214D02*
X5883928Y-1875929D01*
X5869643Y-1861643D01*
X5855357Y-1833071D01*
X5855357Y-1747357D01*
X5869643Y-1718786D01*
X5883928Y-1704500D01*
X5912500Y-1690214D01*
X5955357Y-1690214D01*
X5983928Y-1704500D01*
X5998214Y-1718786D01*
X6012500Y-1747357D01*
X6012500Y-1833071D01*
X5998214Y-1861643D01*
X5983928Y-1875929D01*
X5955357Y-1890214D01*
X5912500Y-1890214D01*
X6183928Y-1890214D02*
X6155357Y-1875929D01*
X6141071Y-1847357D01*
X6141071Y-1590214D01*
X6412500Y-1875929D02*
X6383928Y-1890214D01*
X6326786Y-1890214D01*
X6298214Y-1875929D01*
X6283928Y-1847357D01*
X6283928Y-1733071D01*
X6298214Y-1704500D01*
X6326786Y-1690214D01*
X6383928Y-1690214D01*
X6412500Y-1704500D01*
X6426786Y-1733071D01*
X6426786Y-1761643D01*
X6283928Y-1790214D01*
X6541071Y-1875929D02*
X6569643Y-1890214D01*
X6626786Y-1890214D01*
X6655357Y-1875929D01*
X6669643Y-1847357D01*
X6669643Y-1833071D01*
X6655357Y-1804500D01*
X6626786Y-1790214D01*
X6583928Y-1790214D01*
X6555357Y-1775929D01*
X6541071Y-1747357D01*
X6541071Y-1733071D01*
X6555357Y-1704500D01*
X6583928Y-1690214D01*
X6626786Y-1690214D01*
X6655357Y-1704500D01*
X6769643Y-2004500D02*
X6783928Y-1990214D01*
X6812500Y-1947357D01*
X6826786Y-1918786D01*
X6841071Y-1875929D01*
X6855357Y-1804500D01*
X6855357Y-1747357D01*
X6841071Y-1675929D01*
X6826786Y-1633071D01*
X6812500Y-1604500D01*
X6783928Y-1561643D01*
X6769643Y-1547357D01*
X-13483Y-2177017D02*
X-13483Y-2123983D01*
X-66517Y-2123983D01*
X-66517Y-2177017D01*
X-13483Y-2177017D01*
X341071Y-1986214D02*
X369643Y-1986214D01*
X398214Y-2000500D01*
X412500Y-2014786D01*
X426786Y-2043357D01*
X441071Y-2100500D01*
X441071Y-2171929D01*
X426786Y-2229072D01*
X412500Y-2257643D01*
X398214Y-2271929D01*
X369643Y-2286214D01*
X341071Y-2286214D01*
X312500Y-2271929D01*
X298214Y-2257643D01*
X283928Y-2229072D01*
X269643Y-2171929D01*
X269643Y-2100500D01*
X283928Y-2043357D01*
X298214Y-2014786D01*
X312500Y-2000500D01*
X341071Y-1986214D01*
X569643Y-2257643D02*
X583928Y-2271929D01*
X569643Y-2286214D01*
X555357Y-2271929D01*
X569643Y-2257643D01*
X569643Y-2286214D01*
X683928Y-1986214D02*
X883928Y-1986214D01*
X755357Y-2286214D01*
X1141071Y-1986214D02*
X998214Y-1986214D01*
X983928Y-2129072D01*
X998214Y-2114786D01*
X1026786Y-2100500D01*
X1098214Y-2100500D01*
X1126786Y-2114786D01*
X1141071Y-2129072D01*
X1155357Y-2157643D01*
X1155357Y-2229072D01*
X1141071Y-2257643D01*
X1126786Y-2271929D01*
X1098214Y-2286214D01*
X1026786Y-2286214D01*
X998214Y-2271929D01*
X983928Y-2257643D01*
X1283928Y-2286214D02*
X1283928Y-2086214D01*
X1283928Y-2114786D02*
X1298214Y-2100500D01*
X1326786Y-2086214D01*
X1369643Y-2086214D01*
X1398214Y-2100500D01*
X1412500Y-2129072D01*
X1412500Y-2286214D01*
X1412500Y-2129072D02*
X1426786Y-2100500D01*
X1455357Y-2086214D01*
X1498214Y-2086214D01*
X1526786Y-2100500D01*
X1541071Y-2129072D01*
X1541071Y-2286214D01*
X1683928Y-2286214D02*
X1683928Y-2086214D01*
X1683928Y-2114786D02*
X1698214Y-2100500D01*
X1726786Y-2086214D01*
X1769643Y-2086214D01*
X1798214Y-2100500D01*
X1812500Y-2129072D01*
X1812500Y-2286214D01*
X1812500Y-2129072D02*
X1826786Y-2100500D01*
X1855357Y-2086214D01*
X1898214Y-2086214D01*
X1926786Y-2100500D01*
X1941071Y-2129072D01*
X1941071Y-2286214D01*
X2526786Y-1971929D02*
X2269643Y-2357643D01*
X2912500Y-1986214D02*
X2941071Y-1986214D01*
X2969643Y-2000500D01*
X2983928Y-2014786D01*
X2998214Y-2043357D01*
X3012500Y-2100500D01*
X3012500Y-2171929D01*
X2998214Y-2229072D01*
X2983928Y-2257643D01*
X2969643Y-2271929D01*
X2941071Y-2286214D01*
X2912500Y-2286214D01*
X2883928Y-2271929D01*
X2869643Y-2257643D01*
X2855357Y-2229072D01*
X2841071Y-2171929D01*
X2841071Y-2100500D01*
X2855357Y-2043357D01*
X2869643Y-2014786D01*
X2883928Y-2000500D01*
X2912500Y-1986214D01*
X3141071Y-2257643D02*
X3155357Y-2271929D01*
X3141071Y-2286214D01*
X3126786Y-2271929D01*
X3141071Y-2257643D01*
X3141071Y-2286214D01*
X3341071Y-1986214D02*
X3369643Y-1986214D01*
X3398214Y-2000500D01*
X3412500Y-2014786D01*
X3426786Y-2043357D01*
X3441071Y-2100500D01*
X3441071Y-2171929D01*
X3426786Y-2229072D01*
X3412500Y-2257643D01*
X3398214Y-2271929D01*
X3369643Y-2286214D01*
X3341071Y-2286214D01*
X3312500Y-2271929D01*
X3298214Y-2257643D01*
X3283928Y-2229072D01*
X3269643Y-2171929D01*
X3269643Y-2100500D01*
X3283928Y-2043357D01*
X3298214Y-2014786D01*
X3312500Y-2000500D01*
X3341071Y-1986214D01*
X3541071Y-1986214D02*
X3726786Y-1986214D01*
X3626786Y-2100500D01*
X3669643Y-2100500D01*
X3698214Y-2114786D01*
X3712500Y-2129072D01*
X3726786Y-2157643D01*
X3726786Y-2229072D01*
X3712500Y-2257643D01*
X3698214Y-2271929D01*
X3669643Y-2286214D01*
X3583928Y-2286214D01*
X3555357Y-2271929D01*
X3541071Y-2257643D01*
X3912500Y-1986214D02*
X3941071Y-1986214D01*
X3969643Y-2000500D01*
X3983928Y-2014786D01*
X3998214Y-2043357D01*
X4012500Y-2100500D01*
X4012500Y-2171929D01*
X3998214Y-2229072D01*
X3983928Y-2257643D01*
X3969643Y-2271929D01*
X3941071Y-2286214D01*
X3912500Y-2286214D01*
X3883928Y-2271929D01*
X3869643Y-2257643D01*
X3855357Y-2229072D01*
X3841071Y-2171929D01*
X3841071Y-2100500D01*
X3855357Y-2043357D01*
X3869643Y-2014786D01*
X3883928Y-2000500D01*
X3912500Y-1986214D01*
X4126786Y-1986214D02*
X4126786Y-2043357D01*
X4241071Y-1986214D02*
X4241071Y-2043357D01*
X4683928Y-2400500D02*
X4669643Y-2386214D01*
X4641071Y-2343357D01*
X4626786Y-2314786D01*
X4612500Y-2271929D01*
X4598214Y-2200500D01*
X4598214Y-2143357D01*
X4612500Y-2071929D01*
X4626786Y-2029071D01*
X4641071Y-2000500D01*
X4669643Y-1957643D01*
X4683928Y-1943357D01*
X4841071Y-2114786D02*
X4812500Y-2100500D01*
X4798214Y-2086214D01*
X4783928Y-2057643D01*
X4783928Y-2043357D01*
X4798214Y-2014786D01*
X4812500Y-2000500D01*
X4841071Y-1986214D01*
X4898214Y-1986214D01*
X4926786Y-2000500D01*
X4941071Y-2014786D01*
X4955357Y-2043357D01*
X4955357Y-2057643D01*
X4941071Y-2086214D01*
X4926786Y-2100500D01*
X4898214Y-2114786D01*
X4841071Y-2114786D01*
X4812500Y-2129072D01*
X4798214Y-2143357D01*
X4783928Y-2171929D01*
X4783928Y-2229072D01*
X4798214Y-2257643D01*
X4812500Y-2271929D01*
X4841071Y-2286214D01*
X4898214Y-2286214D01*
X4926786Y-2271929D01*
X4941071Y-2257643D01*
X4955357Y-2229072D01*
X4955357Y-2171929D01*
X4941071Y-2143357D01*
X4926786Y-2129072D01*
X4898214Y-2114786D01*
X5312500Y-2286214D02*
X5312500Y-1986214D01*
X5441071Y-2286214D02*
X5441071Y-2129072D01*
X5426786Y-2100500D01*
X5398214Y-2086214D01*
X5355357Y-2086214D01*
X5326786Y-2100500D01*
X5312500Y-2114786D01*
X5626786Y-2286214D02*
X5598214Y-2271929D01*
X5583928Y-2257643D01*
X5569643Y-2229072D01*
X5569643Y-2143357D01*
X5583928Y-2114786D01*
X5598214Y-2100500D01*
X5626786Y-2086214D01*
X5669643Y-2086214D01*
X5698214Y-2100500D01*
X5712500Y-2114786D01*
X5726786Y-2143357D01*
X5726786Y-2229072D01*
X5712500Y-2257643D01*
X5698214Y-2271929D01*
X5669643Y-2286214D01*
X5626786Y-2286214D01*
X5898214Y-2286214D02*
X5869643Y-2271929D01*
X5855357Y-2243357D01*
X5855357Y-1986214D01*
X6126786Y-2271929D02*
X6098214Y-2286214D01*
X6041071Y-2286214D01*
X6012500Y-2271929D01*
X5998214Y-2243357D01*
X5998214Y-2129072D01*
X6012500Y-2100500D01*
X6041071Y-2086214D01*
X6098214Y-2086214D01*
X6126786Y-2100500D01*
X6141071Y-2129072D01*
X6141071Y-2157643D01*
X5998214Y-2186214D01*
X6255357Y-2271929D02*
X6283928Y-2286214D01*
X6341071Y-2286214D01*
X6369643Y-2271929D01*
X6383928Y-2243357D01*
X6383928Y-2229072D01*
X6369643Y-2200500D01*
X6341071Y-2186214D01*
X6298214Y-2186214D01*
X6269643Y-2171929D01*
X6255357Y-2143357D01*
X6255357Y-2129072D01*
X6269643Y-2100500D01*
X6298214Y-2086214D01*
X6341071Y-2086214D01*
X6369643Y-2100500D01*
X6483928Y-2400500D02*
X6498214Y-2386214D01*
X6526786Y-2343357D01*
X6541071Y-2314786D01*
X6555357Y-2271929D01*
X6569643Y-2200500D01*
X6569643Y-2143357D01*
X6555357Y-2071929D01*
X6541071Y-2029071D01*
X6526786Y-2000500D01*
X6498214Y-1957643D01*
X6483928Y-1943357D01*
X-42500Y-2586500D02*
X-2500Y-2546500D01*
X-42500Y-2506500D01*
X-82500Y-2546500D01*
X-42500Y-2586500D01*
X341071Y-2382214D02*
X369643Y-2382214D01*
X398214Y-2396500D01*
X412500Y-2410786D01*
X426786Y-2439357D01*
X441071Y-2496500D01*
X441071Y-2567929D01*
X426786Y-2625072D01*
X412500Y-2653643D01*
X398214Y-2667929D01*
X369643Y-2682214D01*
X341071Y-2682214D01*
X312500Y-2667929D01*
X298214Y-2653643D01*
X283928Y-2625072D01*
X269643Y-2567929D01*
X269643Y-2496500D01*
X283928Y-2439357D01*
X298214Y-2410786D01*
X312500Y-2396500D01*
X341071Y-2382214D01*
X569643Y-2653643D02*
X583928Y-2667929D01*
X569643Y-2682214D01*
X555357Y-2667929D01*
X569643Y-2653643D01*
X569643Y-2682214D01*
X755357Y-2510786D02*
X726786Y-2496500D01*
X712500Y-2482214D01*
X698214Y-2453643D01*
X698214Y-2439357D01*
X712500Y-2410786D01*
X726786Y-2396500D01*
X755357Y-2382214D01*
X812500Y-2382214D01*
X841071Y-2396500D01*
X855357Y-2410786D01*
X869643Y-2439357D01*
X869643Y-2453643D01*
X855357Y-2482214D01*
X841071Y-2496500D01*
X812500Y-2510786D01*
X755357Y-2510786D01*
X726786Y-2525072D01*
X712500Y-2539357D01*
X698214Y-2567929D01*
X698214Y-2625072D01*
X712500Y-2653643D01*
X726786Y-2667929D01*
X755357Y-2682214D01*
X812500Y-2682214D01*
X841071Y-2667929D01*
X855357Y-2653643D01*
X869643Y-2625072D01*
X869643Y-2567929D01*
X855357Y-2539357D01*
X841071Y-2525072D01*
X812500Y-2510786D01*
X1055357Y-2382214D02*
X1083928Y-2382214D01*
X1112500Y-2396500D01*
X1126786Y-2410786D01*
X1141071Y-2439357D01*
X1155357Y-2496500D01*
X1155357Y-2567929D01*
X1141071Y-2625072D01*
X1126786Y-2653643D01*
X1112500Y-2667929D01*
X1083928Y-2682214D01*
X1055357Y-2682214D01*
X1026786Y-2667929D01*
X1012500Y-2653643D01*
X998214Y-2625072D01*
X983928Y-2567929D01*
X983928Y-2496500D01*
X998214Y-2439357D01*
X1012500Y-2410786D01*
X1026786Y-2396500D01*
X1055357Y-2382214D01*
X1283928Y-2682214D02*
X1283928Y-2482214D01*
X1283928Y-2510786D02*
X1298214Y-2496500D01*
X1326786Y-2482214D01*
X1369643Y-2482214D01*
X1398214Y-2496500D01*
X1412500Y-2525072D01*
X1412500Y-2682214D01*
X1412500Y-2525072D02*
X1426786Y-2496500D01*
X1455357Y-2482214D01*
X1498214Y-2482214D01*
X1526786Y-2496500D01*
X1541071Y-2525072D01*
X1541071Y-2682214D01*
X1683928Y-2682214D02*
X1683928Y-2482214D01*
X1683928Y-2510786D02*
X1698214Y-2496500D01*
X1726786Y-2482214D01*
X1769643Y-2482214D01*
X1798214Y-2496500D01*
X1812500Y-2525072D01*
X1812500Y-2682214D01*
X1812500Y-2525072D02*
X1826786Y-2496500D01*
X1855357Y-2482214D01*
X1898214Y-2482214D01*
X1926786Y-2496500D01*
X1941071Y-2525072D01*
X1941071Y-2682214D01*
X2526786Y-2367929D02*
X2269643Y-2753643D01*
X2912500Y-2382214D02*
X2941071Y-2382214D01*
X2969643Y-2396500D01*
X2983928Y-2410786D01*
X2998214Y-2439357D01*
X3012500Y-2496500D01*
X3012500Y-2567929D01*
X2998214Y-2625072D01*
X2983928Y-2653643D01*
X2969643Y-2667929D01*
X2941071Y-2682214D01*
X2912500Y-2682214D01*
X2883928Y-2667929D01*
X2869643Y-2653643D01*
X2855357Y-2625072D01*
X2841071Y-2567929D01*
X2841071Y-2496500D01*
X2855357Y-2439357D01*
X2869643Y-2410786D01*
X2883928Y-2396500D01*
X2912500Y-2382214D01*
X3141071Y-2653643D02*
X3155357Y-2667929D01*
X3141071Y-2682214D01*
X3126786Y-2667929D01*
X3141071Y-2653643D01*
X3141071Y-2682214D01*
X3341071Y-2382214D02*
X3369643Y-2382214D01*
X3398214Y-2396500D01*
X3412500Y-2410786D01*
X3426786Y-2439357D01*
X3441071Y-2496500D01*
X3441071Y-2567929D01*
X3426786Y-2625072D01*
X3412500Y-2653643D01*
X3398214Y-2667929D01*
X3369643Y-2682214D01*
X3341071Y-2682214D01*
X3312500Y-2667929D01*
X3298214Y-2653643D01*
X3283928Y-2625072D01*
X3269643Y-2567929D01*
X3269643Y-2496500D01*
X3283928Y-2439357D01*
X3298214Y-2410786D01*
X3312500Y-2396500D01*
X3341071Y-2382214D01*
X3541071Y-2382214D02*
X3726786Y-2382214D01*
X3626786Y-2496500D01*
X3669643Y-2496500D01*
X3698214Y-2510786D01*
X3712500Y-2525072D01*
X3726786Y-2553643D01*
X3726786Y-2625072D01*
X3712500Y-2653643D01*
X3698214Y-2667929D01*
X3669643Y-2682214D01*
X3583928Y-2682214D01*
X3555357Y-2667929D01*
X3541071Y-2653643D01*
X4012500Y-2682214D02*
X3841071Y-2682214D01*
X3926786Y-2682214D02*
X3926786Y-2382214D01*
X3898214Y-2425072D01*
X3869643Y-2453643D01*
X3841071Y-2467929D01*
X4126786Y-2382214D02*
X4126786Y-2439357D01*
X4241071Y-2382214D02*
X4241071Y-2439357D01*
X4683928Y-2796500D02*
X4669643Y-2782214D01*
X4641071Y-2739357D01*
X4626786Y-2710786D01*
X4612500Y-2667929D01*
X4598214Y-2596500D01*
X4598214Y-2539357D01*
X4612500Y-2467929D01*
X4626786Y-2425072D01*
X4641071Y-2396500D01*
X4669643Y-2353643D01*
X4683928Y-2339357D01*
X4769643Y-2382214D02*
X4955357Y-2382214D01*
X4855357Y-2496500D01*
X4898214Y-2496500D01*
X4926786Y-2510786D01*
X4941071Y-2525072D01*
X4955357Y-2553643D01*
X4955357Y-2625072D01*
X4941071Y-2653643D01*
X4926786Y-2667929D01*
X4898214Y-2682214D01*
X4812500Y-2682214D01*
X4783928Y-2667929D01*
X4769643Y-2653643D01*
X5312500Y-2682214D02*
X5312500Y-2382214D01*
X5441071Y-2682214D02*
X5441071Y-2525072D01*
X5426786Y-2496500D01*
X5398214Y-2482214D01*
X5355357Y-2482214D01*
X5326786Y-2496500D01*
X5312500Y-2510786D01*
X5626786Y-2682214D02*
X5598214Y-2667929D01*
X5583928Y-2653643D01*
X5569643Y-2625072D01*
X5569643Y-2539357D01*
X5583928Y-2510786D01*
X5598214Y-2496500D01*
X5626786Y-2482214D01*
X5669643Y-2482214D01*
X5698214Y-2496500D01*
X5712500Y-2510786D01*
X5726786Y-2539357D01*
X5726786Y-2625072D01*
X5712500Y-2653643D01*
X5698214Y-2667929D01*
X5669643Y-2682214D01*
X5626786Y-2682214D01*
X5898214Y-2682214D02*
X5869643Y-2667929D01*
X5855357Y-2639357D01*
X5855357Y-2382214D01*
X6126786Y-2667929D02*
X6098214Y-2682214D01*
X6041071Y-2682214D01*
X6012500Y-2667929D01*
X5998214Y-2639357D01*
X5998214Y-2525072D01*
X6012500Y-2496500D01*
X6041071Y-2482214D01*
X6098214Y-2482214D01*
X6126786Y-2496500D01*
X6141071Y-2525072D01*
X6141071Y-2553643D01*
X5998214Y-2582214D01*
X6255357Y-2667929D02*
X6283928Y-2682214D01*
X6341071Y-2682214D01*
X6369643Y-2667929D01*
X6383928Y-2639357D01*
X6383928Y-2625072D01*
X6369643Y-2596500D01*
X6341071Y-2582214D01*
X6298214Y-2582214D01*
X6269643Y-2567929D01*
X6255357Y-2539357D01*
X6255357Y-2525072D01*
X6269643Y-2496500D01*
X6298214Y-2482214D01*
X6341071Y-2482214D01*
X6369643Y-2496500D01*
X6483928Y-2796500D02*
X6498214Y-2782214D01*
X6526786Y-2739357D01*
X6541071Y-2710786D01*
X6555357Y-2667929D01*
X6569643Y-2596500D01*
X6569643Y-2539357D01*
X6555357Y-2467929D01*
X6541071Y-2425072D01*
X6526786Y-2396500D01*
X6498214Y-2353643D01*
X6483928Y-2339357D01*
X-92500Y-2897500D02*
X-2500Y-2987500D01*
X-2500Y-2897500D02*
X-92500Y-2987500D01*
X-2500Y-2942500D02*
G75*
G03*
X-2500Y-2942500I-45000J0D01*
G01*
X341071Y-2778214D02*
X369643Y-2778214D01*
X398214Y-2792500D01*
X412500Y-2806786D01*
X426786Y-2835357D01*
X441071Y-2892500D01*
X441071Y-2963929D01*
X426786Y-3021071D01*
X412500Y-3049643D01*
X398214Y-3063929D01*
X369643Y-3078214D01*
X341071Y-3078214D01*
X312500Y-3063929D01*
X298214Y-3049643D01*
X283928Y-3021071D01*
X269643Y-2963929D01*
X269643Y-2892500D01*
X283928Y-2835357D01*
X298214Y-2806786D01*
X312500Y-2792500D01*
X341071Y-2778214D01*
X569643Y-3049643D02*
X583928Y-3063929D01*
X569643Y-3078214D01*
X555357Y-3063929D01*
X569643Y-3049643D01*
X569643Y-3078214D01*
X726786Y-3078214D02*
X783928Y-3078214D01*
X812500Y-3063929D01*
X826786Y-3049643D01*
X855357Y-3006786D01*
X869643Y-2949643D01*
X869643Y-2835357D01*
X855357Y-2806786D01*
X841071Y-2792500D01*
X812500Y-2778214D01*
X755357Y-2778214D01*
X726786Y-2792500D01*
X712500Y-2806786D01*
X698214Y-2835357D01*
X698214Y-2906786D01*
X712500Y-2935357D01*
X726786Y-2949643D01*
X755357Y-2963929D01*
X812500Y-2963929D01*
X841071Y-2949643D01*
X855357Y-2935357D01*
X869643Y-2906786D01*
X1055357Y-2778214D02*
X1083928Y-2778214D01*
X1112500Y-2792500D01*
X1126786Y-2806786D01*
X1141071Y-2835357D01*
X1155357Y-2892500D01*
X1155357Y-2963929D01*
X1141071Y-3021071D01*
X1126786Y-3049643D01*
X1112500Y-3063929D01*
X1083928Y-3078214D01*
X1055357Y-3078214D01*
X1026786Y-3063929D01*
X1012500Y-3049643D01*
X998214Y-3021071D01*
X983928Y-2963929D01*
X983928Y-2892500D01*
X998214Y-2835357D01*
X1012500Y-2806786D01*
X1026786Y-2792500D01*
X1055357Y-2778214D01*
X1283928Y-3078214D02*
X1283928Y-2878214D01*
X1283928Y-2906786D02*
X1298214Y-2892500D01*
X1326786Y-2878214D01*
X1369643Y-2878214D01*
X1398214Y-2892500D01*
X1412500Y-2921071D01*
X1412500Y-3078214D01*
X1412500Y-2921071D02*
X1426786Y-2892500D01*
X1455357Y-2878214D01*
X1498214Y-2878214D01*
X1526786Y-2892500D01*
X1541071Y-2921071D01*
X1541071Y-3078214D01*
X1683928Y-3078214D02*
X1683928Y-2878214D01*
X1683928Y-2906786D02*
X1698214Y-2892500D01*
X1726786Y-2878214D01*
X1769643Y-2878214D01*
X1798214Y-2892500D01*
X1812500Y-2921071D01*
X1812500Y-3078214D01*
X1812500Y-2921071D02*
X1826786Y-2892500D01*
X1855357Y-2878214D01*
X1898214Y-2878214D01*
X1926786Y-2892500D01*
X1941071Y-2921071D01*
X1941071Y-3078214D01*
X2526786Y-2763929D02*
X2269643Y-3149643D01*
X2912500Y-2778214D02*
X2941071Y-2778214D01*
X2969643Y-2792500D01*
X2983928Y-2806786D01*
X2998214Y-2835357D01*
X3012500Y-2892500D01*
X3012500Y-2963929D01*
X2998214Y-3021071D01*
X2983928Y-3049643D01*
X2969643Y-3063929D01*
X2941071Y-3078214D01*
X2912500Y-3078214D01*
X2883928Y-3063929D01*
X2869643Y-3049643D01*
X2855357Y-3021071D01*
X2841071Y-2963929D01*
X2841071Y-2892500D01*
X2855357Y-2835357D01*
X2869643Y-2806786D01*
X2883928Y-2792500D01*
X2912500Y-2778214D01*
X3141071Y-3049643D02*
X3155357Y-3063929D01*
X3141071Y-3078214D01*
X3126786Y-3063929D01*
X3141071Y-3049643D01*
X3141071Y-3078214D01*
X3341071Y-2778214D02*
X3369643Y-2778214D01*
X3398214Y-2792500D01*
X3412500Y-2806786D01*
X3426786Y-2835357D01*
X3441071Y-2892500D01*
X3441071Y-2963929D01*
X3426786Y-3021071D01*
X3412500Y-3049643D01*
X3398214Y-3063929D01*
X3369643Y-3078214D01*
X3341071Y-3078214D01*
X3312500Y-3063929D01*
X3298214Y-3049643D01*
X3283928Y-3021071D01*
X3269643Y-2963929D01*
X3269643Y-2892500D01*
X3283928Y-2835357D01*
X3298214Y-2806786D01*
X3312500Y-2792500D01*
X3341071Y-2778214D01*
X3541071Y-2778214D02*
X3726786Y-2778214D01*
X3626786Y-2892500D01*
X3669643Y-2892500D01*
X3698214Y-2906786D01*
X3712500Y-2921071D01*
X3726786Y-2949643D01*
X3726786Y-3021071D01*
X3712500Y-3049643D01*
X3698214Y-3063929D01*
X3669643Y-3078214D01*
X3583928Y-3078214D01*
X3555357Y-3063929D01*
X3541071Y-3049643D01*
X3998214Y-2778214D02*
X3855357Y-2778214D01*
X3841071Y-2921071D01*
X3855357Y-2906786D01*
X3883928Y-2892500D01*
X3955357Y-2892500D01*
X3983928Y-2906786D01*
X3998214Y-2921071D01*
X4012500Y-2949643D01*
X4012500Y-3021071D01*
X3998214Y-3049643D01*
X3983928Y-3063929D01*
X3955357Y-3078214D01*
X3883928Y-3078214D01*
X3855357Y-3063929D01*
X3841071Y-3049643D01*
X4126786Y-2778214D02*
X4126786Y-2835357D01*
X4241071Y-2778214D02*
X4241071Y-2835357D01*
X4683928Y-3192500D02*
X4669643Y-3178214D01*
X4641071Y-3135357D01*
X4626786Y-3106786D01*
X4612500Y-3063929D01*
X4598214Y-2992500D01*
X4598214Y-2935357D01*
X4612500Y-2863929D01*
X4626786Y-2821071D01*
X4641071Y-2792500D01*
X4669643Y-2749643D01*
X4683928Y-2735357D01*
X4926786Y-2778214D02*
X4869643Y-2778214D01*
X4841071Y-2792500D01*
X4826786Y-2806786D01*
X4798214Y-2849643D01*
X4783928Y-2906786D01*
X4783928Y-3021071D01*
X4798214Y-3049643D01*
X4812500Y-3063929D01*
X4841071Y-3078214D01*
X4898214Y-3078214D01*
X4926786Y-3063929D01*
X4941071Y-3049643D01*
X4955357Y-3021071D01*
X4955357Y-2949643D01*
X4941071Y-2921071D01*
X4926786Y-2906786D01*
X4898214Y-2892500D01*
X4841071Y-2892500D01*
X4812500Y-2906786D01*
X4798214Y-2921071D01*
X4783928Y-2949643D01*
X5312500Y-3078214D02*
X5312500Y-2778214D01*
X5441071Y-3078214D02*
X5441071Y-2921071D01*
X5426786Y-2892500D01*
X5398214Y-2878214D01*
X5355357Y-2878214D01*
X5326786Y-2892500D01*
X5312500Y-2906786D01*
X5626786Y-3078214D02*
X5598214Y-3063929D01*
X5583928Y-3049643D01*
X5569643Y-3021071D01*
X5569643Y-2935357D01*
X5583928Y-2906786D01*
X5598214Y-2892500D01*
X5626786Y-2878214D01*
X5669643Y-2878214D01*
X5698214Y-2892500D01*
X5712500Y-2906786D01*
X5726786Y-2935357D01*
X5726786Y-3021071D01*
X5712500Y-3049643D01*
X5698214Y-3063929D01*
X5669643Y-3078214D01*
X5626786Y-3078214D01*
X5898214Y-3078214D02*
X5869643Y-3063929D01*
X5855357Y-3035357D01*
X5855357Y-2778214D01*
X6126786Y-3063929D02*
X6098214Y-3078214D01*
X6041071Y-3078214D01*
X6012500Y-3063929D01*
X5998214Y-3035357D01*
X5998214Y-2921071D01*
X6012500Y-2892500D01*
X6041071Y-2878214D01*
X6098214Y-2878214D01*
X6126786Y-2892500D01*
X6141071Y-2921071D01*
X6141071Y-2949643D01*
X5998214Y-2978214D01*
X6255357Y-3063929D02*
X6283928Y-3078214D01*
X6341071Y-3078214D01*
X6369643Y-3063929D01*
X6383928Y-3035357D01*
X6383928Y-3021071D01*
X6369643Y-2992500D01*
X6341071Y-2978214D01*
X6298214Y-2978214D01*
X6269643Y-2963929D01*
X6255357Y-2935357D01*
X6255357Y-2921071D01*
X6269643Y-2892500D01*
X6298214Y-2878214D01*
X6341071Y-2878214D01*
X6369643Y-2892500D01*
X6483928Y-3192500D02*
X6498214Y-3178214D01*
X6526786Y-3135357D01*
X6541071Y-3106786D01*
X6555357Y-3063929D01*
X6569643Y-2992500D01*
X6569643Y-2935357D01*
X6555357Y-2863929D01*
X6541071Y-2821071D01*
X6526786Y-2792500D01*
X6498214Y-2749643D01*
X6483928Y-2735357D01*
X-102500Y-3288500D02*
X-2500Y-3388500D01*
X-2500Y-3288500D02*
X-102500Y-3388500D01*
X-52500Y-3288500D02*
X-52500Y-3388500D01*
X-102500Y-3338500D02*
X-2500Y-3338500D01*
X441071Y-3474214D02*
X269643Y-3474214D01*
X355357Y-3474214D02*
X355357Y-3174214D01*
X326786Y-3217071D01*
X298214Y-3245643D01*
X269643Y-3259929D01*
X569643Y-3445643D02*
X583928Y-3459929D01*
X569643Y-3474214D01*
X555357Y-3459929D01*
X569643Y-3445643D01*
X569643Y-3474214D01*
X769643Y-3174214D02*
X798214Y-3174214D01*
X826786Y-3188500D01*
X841071Y-3202786D01*
X855357Y-3231357D01*
X869643Y-3288500D01*
X869643Y-3359929D01*
X855357Y-3417071D01*
X841071Y-3445643D01*
X826786Y-3459929D01*
X798214Y-3474214D01*
X769643Y-3474214D01*
X741071Y-3459929D01*
X726786Y-3445643D01*
X712500Y-3417071D01*
X698214Y-3359929D01*
X698214Y-3288500D01*
X712500Y-3231357D01*
X726786Y-3202786D01*
X741071Y-3188500D01*
X769643Y-3174214D01*
X1055357Y-3174214D02*
X1083928Y-3174214D01*
X1112500Y-3188500D01*
X1126786Y-3202786D01*
X1141071Y-3231357D01*
X1155357Y-3288500D01*
X1155357Y-3359929D01*
X1141071Y-3417071D01*
X1126786Y-3445643D01*
X1112500Y-3459929D01*
X1083928Y-3474214D01*
X1055357Y-3474214D01*
X1026786Y-3459929D01*
X1012500Y-3445643D01*
X998214Y-3417071D01*
X983928Y-3359929D01*
X983928Y-3288500D01*
X998214Y-3231357D01*
X1012500Y-3202786D01*
X1026786Y-3188500D01*
X1055357Y-3174214D01*
X1283928Y-3474214D02*
X1283928Y-3274214D01*
X1283928Y-3302786D02*
X1298214Y-3288500D01*
X1326786Y-3274214D01*
X1369643Y-3274214D01*
X1398214Y-3288500D01*
X1412500Y-3317071D01*
X1412500Y-3474214D01*
X1412500Y-3317071D02*
X1426786Y-3288500D01*
X1455357Y-3274214D01*
X1498214Y-3274214D01*
X1526786Y-3288500D01*
X1541071Y-3317071D01*
X1541071Y-3474214D01*
X1683928Y-3474214D02*
X1683928Y-3274214D01*
X1683928Y-3302786D02*
X1698214Y-3288500D01*
X1726786Y-3274214D01*
X1769643Y-3274214D01*
X1798214Y-3288500D01*
X1812500Y-3317071D01*
X1812500Y-3474214D01*
X1812500Y-3317071D02*
X1826786Y-3288500D01*
X1855357Y-3274214D01*
X1898214Y-3274214D01*
X1926786Y-3288500D01*
X1941071Y-3317071D01*
X1941071Y-3474214D01*
X2526786Y-3159929D02*
X2269643Y-3545643D01*
X2912500Y-3174214D02*
X2941071Y-3174214D01*
X2969643Y-3188500D01*
X2983928Y-3202786D01*
X2998214Y-3231357D01*
X3012500Y-3288500D01*
X3012500Y-3359929D01*
X2998214Y-3417071D01*
X2983928Y-3445643D01*
X2969643Y-3459929D01*
X2941071Y-3474214D01*
X2912500Y-3474214D01*
X2883928Y-3459929D01*
X2869643Y-3445643D01*
X2855357Y-3417071D01*
X2841071Y-3359929D01*
X2841071Y-3288500D01*
X2855357Y-3231357D01*
X2869643Y-3202786D01*
X2883928Y-3188500D01*
X2912500Y-3174214D01*
X3141071Y-3445643D02*
X3155357Y-3459929D01*
X3141071Y-3474214D01*
X3126786Y-3459929D01*
X3141071Y-3445643D01*
X3141071Y-3474214D01*
X3341071Y-3174214D02*
X3369643Y-3174214D01*
X3398214Y-3188500D01*
X3412500Y-3202786D01*
X3426786Y-3231357D01*
X3441071Y-3288500D01*
X3441071Y-3359929D01*
X3426786Y-3417071D01*
X3412500Y-3445643D01*
X3398214Y-3459929D01*
X3369643Y-3474214D01*
X3341071Y-3474214D01*
X3312500Y-3459929D01*
X3298214Y-3445643D01*
X3283928Y-3417071D01*
X3269643Y-3359929D01*
X3269643Y-3288500D01*
X3283928Y-3231357D01*
X3298214Y-3202786D01*
X3312500Y-3188500D01*
X3341071Y-3174214D01*
X3541071Y-3174214D02*
X3726786Y-3174214D01*
X3626786Y-3288500D01*
X3669643Y-3288500D01*
X3698214Y-3302786D01*
X3712500Y-3317071D01*
X3726786Y-3345643D01*
X3726786Y-3417071D01*
X3712500Y-3445643D01*
X3698214Y-3459929D01*
X3669643Y-3474214D01*
X3583928Y-3474214D01*
X3555357Y-3459929D01*
X3541071Y-3445643D01*
X3869643Y-3474214D02*
X3926786Y-3474214D01*
X3955357Y-3459929D01*
X3969643Y-3445643D01*
X3998214Y-3402786D01*
X4012500Y-3345643D01*
X4012500Y-3231357D01*
X3998214Y-3202786D01*
X3983928Y-3188500D01*
X3955357Y-3174214D01*
X3898214Y-3174214D01*
X3869643Y-3188500D01*
X3855357Y-3202786D01*
X3841071Y-3231357D01*
X3841071Y-3302786D01*
X3855357Y-3331357D01*
X3869643Y-3345643D01*
X3898214Y-3359929D01*
X3955357Y-3359929D01*
X3983928Y-3345643D01*
X3998214Y-3331357D01*
X4012500Y-3302786D01*
X4126786Y-3174214D02*
X4126786Y-3231357D01*
X4241071Y-3174214D02*
X4241071Y-3231357D01*
X4683928Y-3588500D02*
X4669643Y-3574214D01*
X4641071Y-3531357D01*
X4626786Y-3502786D01*
X4612500Y-3459929D01*
X4598214Y-3388500D01*
X4598214Y-3331357D01*
X4612500Y-3259929D01*
X4626786Y-3217071D01*
X4641071Y-3188500D01*
X4669643Y-3145643D01*
X4683928Y-3131357D01*
X4812500Y-3474214D02*
X4869643Y-3474214D01*
X4898214Y-3459929D01*
X4912500Y-3445643D01*
X4941071Y-3402786D01*
X4955357Y-3345643D01*
X4955357Y-3231357D01*
X4941071Y-3202786D01*
X4926786Y-3188500D01*
X4898214Y-3174214D01*
X4841071Y-3174214D01*
X4812500Y-3188500D01*
X4798214Y-3202786D01*
X4783928Y-3231357D01*
X4783928Y-3302786D01*
X4798214Y-3331357D01*
X4812500Y-3345643D01*
X4841071Y-3359929D01*
X4898214Y-3359929D01*
X4926786Y-3345643D01*
X4941071Y-3331357D01*
X4955357Y-3302786D01*
X5312500Y-3474214D02*
X5312500Y-3174214D01*
X5441071Y-3474214D02*
X5441071Y-3317071D01*
X5426786Y-3288500D01*
X5398214Y-3274214D01*
X5355357Y-3274214D01*
X5326786Y-3288500D01*
X5312500Y-3302786D01*
X5626786Y-3474214D02*
X5598214Y-3459929D01*
X5583928Y-3445643D01*
X5569643Y-3417071D01*
X5569643Y-3331357D01*
X5583928Y-3302786D01*
X5598214Y-3288500D01*
X5626786Y-3274214D01*
X5669643Y-3274214D01*
X5698214Y-3288500D01*
X5712500Y-3302786D01*
X5726786Y-3331357D01*
X5726786Y-3417071D01*
X5712500Y-3445643D01*
X5698214Y-3459929D01*
X5669643Y-3474214D01*
X5626786Y-3474214D01*
X5898214Y-3474214D02*
X5869643Y-3459929D01*
X5855357Y-3431357D01*
X5855357Y-3174214D01*
X6126786Y-3459929D02*
X6098214Y-3474214D01*
X6041071Y-3474214D01*
X6012500Y-3459929D01*
X5998214Y-3431357D01*
X5998214Y-3317071D01*
X6012500Y-3288500D01*
X6041071Y-3274214D01*
X6098214Y-3274214D01*
X6126786Y-3288500D01*
X6141071Y-3317071D01*
X6141071Y-3345643D01*
X5998214Y-3374214D01*
X6255357Y-3459929D02*
X6283928Y-3474214D01*
X6341071Y-3474214D01*
X6369643Y-3459929D01*
X6383928Y-3431357D01*
X6383928Y-3417071D01*
X6369643Y-3388500D01*
X6341071Y-3374214D01*
X6298214Y-3374214D01*
X6269643Y-3359929D01*
X6255357Y-3331357D01*
X6255357Y-3317071D01*
X6269643Y-3288500D01*
X6298214Y-3274214D01*
X6341071Y-3274214D01*
X6369643Y-3288500D01*
X6483928Y-3588500D02*
X6498214Y-3574214D01*
X6526786Y-3531357D01*
X6541071Y-3502786D01*
X6555357Y-3459929D01*
X6569643Y-3388500D01*
X6569643Y-3331357D01*
X6555357Y-3259929D01*
X6541071Y-3217071D01*
X6526786Y-3188500D01*
X6498214Y-3145643D01*
X6483928Y-3131357D01*
X-182500Y-3644500D02*
X-2500Y-3824500D01*
X-2500Y-3644500D02*
X-182500Y-3824500D01*
X-28860Y-3798140D02*
X-28860Y-3670860D01*
X-156140Y-3670860D01*
X-156140Y-3798140D01*
X-28860Y-3798140D01*
X441071Y-3870214D02*
X269643Y-3870214D01*
X355357Y-3870214D02*
X355357Y-3570214D01*
X326786Y-3613071D01*
X298214Y-3641643D01*
X269643Y-3655929D01*
X569643Y-3841643D02*
X583928Y-3855929D01*
X569643Y-3870214D01*
X555357Y-3855929D01*
X569643Y-3841643D01*
X569643Y-3870214D01*
X755357Y-3698786D02*
X726786Y-3684500D01*
X712500Y-3670214D01*
X698214Y-3641643D01*
X698214Y-3627357D01*
X712500Y-3598786D01*
X726786Y-3584500D01*
X755357Y-3570214D01*
X812500Y-3570214D01*
X841071Y-3584500D01*
X855357Y-3598786D01*
X869643Y-3627357D01*
X869643Y-3641643D01*
X855357Y-3670214D01*
X841071Y-3684500D01*
X812500Y-3698786D01*
X755357Y-3698786D01*
X726786Y-3713071D01*
X712500Y-3727357D01*
X698214Y-3755929D01*
X698214Y-3813071D01*
X712500Y-3841643D01*
X726786Y-3855929D01*
X755357Y-3870214D01*
X812500Y-3870214D01*
X841071Y-3855929D01*
X855357Y-3841643D01*
X869643Y-3813071D01*
X869643Y-3755929D01*
X855357Y-3727357D01*
X841071Y-3713071D01*
X812500Y-3698786D01*
X1055357Y-3570214D02*
X1083928Y-3570214D01*
X1112500Y-3584500D01*
X1126786Y-3598786D01*
X1141071Y-3627357D01*
X1155357Y-3684500D01*
X1155357Y-3755929D01*
X1141071Y-3813071D01*
X1126786Y-3841643D01*
X1112500Y-3855929D01*
X1083928Y-3870214D01*
X1055357Y-3870214D01*
X1026786Y-3855929D01*
X1012500Y-3841643D01*
X998214Y-3813071D01*
X983928Y-3755929D01*
X983928Y-3684500D01*
X998214Y-3627357D01*
X1012500Y-3598786D01*
X1026786Y-3584500D01*
X1055357Y-3570214D01*
X1283928Y-3870214D02*
X1283928Y-3670214D01*
X1283928Y-3698786D02*
X1298214Y-3684500D01*
X1326786Y-3670214D01*
X1369643Y-3670214D01*
X1398214Y-3684500D01*
X1412500Y-3713071D01*
X1412500Y-3870214D01*
X1412500Y-3713071D02*
X1426786Y-3684500D01*
X1455357Y-3670214D01*
X1498214Y-3670214D01*
X1526786Y-3684500D01*
X1541071Y-3713071D01*
X1541071Y-3870214D01*
X1683928Y-3870214D02*
X1683928Y-3670214D01*
X1683928Y-3698786D02*
X1698214Y-3684500D01*
X1726786Y-3670214D01*
X1769643Y-3670214D01*
X1798214Y-3684500D01*
X1812500Y-3713071D01*
X1812500Y-3870214D01*
X1812500Y-3713071D02*
X1826786Y-3684500D01*
X1855357Y-3670214D01*
X1898214Y-3670214D01*
X1926786Y-3684500D01*
X1941071Y-3713071D01*
X1941071Y-3870214D01*
X2526786Y-3555929D02*
X2269643Y-3941643D01*
X2912500Y-3570214D02*
X2941071Y-3570214D01*
X2969643Y-3584500D01*
X2983928Y-3598786D01*
X2998214Y-3627357D01*
X3012500Y-3684500D01*
X3012500Y-3755929D01*
X2998214Y-3813071D01*
X2983928Y-3841643D01*
X2969643Y-3855929D01*
X2941071Y-3870214D01*
X2912500Y-3870214D01*
X2883928Y-3855929D01*
X2869643Y-3841643D01*
X2855357Y-3813071D01*
X2841071Y-3755929D01*
X2841071Y-3684500D01*
X2855357Y-3627357D01*
X2869643Y-3598786D01*
X2883928Y-3584500D01*
X2912500Y-3570214D01*
X3141071Y-3841643D02*
X3155357Y-3855929D01*
X3141071Y-3870214D01*
X3126786Y-3855929D01*
X3141071Y-3841643D01*
X3141071Y-3870214D01*
X3341071Y-3570214D02*
X3369643Y-3570214D01*
X3398214Y-3584500D01*
X3412500Y-3598786D01*
X3426786Y-3627357D01*
X3441071Y-3684500D01*
X3441071Y-3755929D01*
X3426786Y-3813071D01*
X3412500Y-3841643D01*
X3398214Y-3855929D01*
X3369643Y-3870214D01*
X3341071Y-3870214D01*
X3312500Y-3855929D01*
X3298214Y-3841643D01*
X3283928Y-3813071D01*
X3269643Y-3755929D01*
X3269643Y-3684500D01*
X3283928Y-3627357D01*
X3298214Y-3598786D01*
X3312500Y-3584500D01*
X3341071Y-3570214D01*
X3541071Y-3570214D02*
X3741071Y-3570214D01*
X3612500Y-3870214D01*
X4012500Y-3870214D02*
X3841071Y-3870214D01*
X3926786Y-3870214D02*
X3926786Y-3570214D01*
X3898214Y-3613071D01*
X3869643Y-3641643D01*
X3841071Y-3655929D01*
X4126786Y-3570214D02*
X4126786Y-3627357D01*
X4241071Y-3570214D02*
X4241071Y-3627357D01*
X4683928Y-3984500D02*
X4669643Y-3970214D01*
X4641071Y-3927357D01*
X4626786Y-3898786D01*
X4612500Y-3855929D01*
X4598214Y-3784500D01*
X4598214Y-3727357D01*
X4612500Y-3655929D01*
X4626786Y-3613071D01*
X4641071Y-3584500D01*
X4669643Y-3541643D01*
X4683928Y-3527357D01*
X4926786Y-3670214D02*
X4926786Y-3870214D01*
X4855357Y-3555929D02*
X4783928Y-3770214D01*
X4969643Y-3770214D01*
X5312500Y-3870214D02*
X5312500Y-3570214D01*
X5441071Y-3870214D02*
X5441071Y-3713071D01*
X5426786Y-3684500D01*
X5398214Y-3670214D01*
X5355357Y-3670214D01*
X5326786Y-3684500D01*
X5312500Y-3698786D01*
X5626786Y-3870214D02*
X5598214Y-3855929D01*
X5583928Y-3841643D01*
X5569643Y-3813071D01*
X5569643Y-3727357D01*
X5583928Y-3698786D01*
X5598214Y-3684500D01*
X5626786Y-3670214D01*
X5669643Y-3670214D01*
X5698214Y-3684500D01*
X5712500Y-3698786D01*
X5726786Y-3727357D01*
X5726786Y-3813071D01*
X5712500Y-3841643D01*
X5698214Y-3855929D01*
X5669643Y-3870214D01*
X5626786Y-3870214D01*
X5898214Y-3870214D02*
X5869643Y-3855929D01*
X5855357Y-3827357D01*
X5855357Y-3570214D01*
X6126786Y-3855929D02*
X6098214Y-3870214D01*
X6041071Y-3870214D01*
X6012500Y-3855929D01*
X5998214Y-3827357D01*
X5998214Y-3713071D01*
X6012500Y-3684500D01*
X6041071Y-3670214D01*
X6098214Y-3670214D01*
X6126786Y-3684500D01*
X6141071Y-3713071D01*
X6141071Y-3741643D01*
X5998214Y-3770214D01*
X6255357Y-3855929D02*
X6283928Y-3870214D01*
X6341071Y-3870214D01*
X6369643Y-3855929D01*
X6383928Y-3827357D01*
X6383928Y-3813071D01*
X6369643Y-3784500D01*
X6341071Y-3770214D01*
X6298214Y-3770214D01*
X6269643Y-3755929D01*
X6255357Y-3727357D01*
X6255357Y-3713071D01*
X6269643Y-3684500D01*
X6298214Y-3670214D01*
X6341071Y-3670214D01*
X6369643Y-3684500D01*
X6483928Y-3984500D02*
X6498214Y-3970214D01*
X6526786Y-3927357D01*
X6541071Y-3898786D01*
X6555357Y-3855929D01*
X6569643Y-3784500D01*
X6569643Y-3727357D01*
X6555357Y-3655929D01*
X6541071Y-3613071D01*
X6526786Y-3584500D01*
X6498214Y-3541643D01*
X6483928Y-3527357D01*
X-352500Y-3955500D02*
X-2500Y-4305500D01*
X-2500Y-3955500D02*
X-352500Y-4305500D01*
X-177500Y-4305500D02*
X-2500Y-4130500D01*
X-177500Y-3955500D01*
X-352500Y-4130500D01*
X-177500Y-4305500D01*
X255357Y-3966214D02*
X441071Y-3966214D01*
X341071Y-4080500D01*
X383928Y-4080500D01*
X412500Y-4094786D01*
X426786Y-4109071D01*
X441071Y-4137643D01*
X441071Y-4209072D01*
X426786Y-4237643D01*
X412500Y-4251929D01*
X383928Y-4266214D01*
X298214Y-4266214D01*
X269643Y-4251929D01*
X255357Y-4237643D01*
X569643Y-4237643D02*
X583928Y-4251929D01*
X569643Y-4266214D01*
X555357Y-4251929D01*
X569643Y-4237643D01*
X569643Y-4266214D01*
X855357Y-3966214D02*
X712500Y-3966214D01*
X698214Y-4109071D01*
X712500Y-4094786D01*
X741071Y-4080500D01*
X812500Y-4080500D01*
X841071Y-4094786D01*
X855357Y-4109071D01*
X869643Y-4137643D01*
X869643Y-4209072D01*
X855357Y-4237643D01*
X841071Y-4251929D01*
X812500Y-4266214D01*
X741071Y-4266214D01*
X712500Y-4251929D01*
X698214Y-4237643D01*
X1055357Y-3966214D02*
X1083928Y-3966214D01*
X1112500Y-3980500D01*
X1126786Y-3994786D01*
X1141071Y-4023357D01*
X1155357Y-4080500D01*
X1155357Y-4151929D01*
X1141071Y-4209072D01*
X1126786Y-4237643D01*
X1112500Y-4251929D01*
X1083928Y-4266214D01*
X1055357Y-4266214D01*
X1026786Y-4251929D01*
X1012500Y-4237643D01*
X998214Y-4209072D01*
X983928Y-4151929D01*
X983928Y-4080500D01*
X998214Y-4023357D01*
X1012500Y-3994786D01*
X1026786Y-3980500D01*
X1055357Y-3966214D01*
X1283928Y-4266214D02*
X1283928Y-4066214D01*
X1283928Y-4094786D02*
X1298214Y-4080500D01*
X1326786Y-4066214D01*
X1369643Y-4066214D01*
X1398214Y-4080500D01*
X1412500Y-4109071D01*
X1412500Y-4266214D01*
X1412500Y-4109071D02*
X1426786Y-4080500D01*
X1455357Y-4066214D01*
X1498214Y-4066214D01*
X1526786Y-4080500D01*
X1541071Y-4109071D01*
X1541071Y-4266214D01*
X1683928Y-4266214D02*
X1683928Y-4066214D01*
X1683928Y-4094786D02*
X1698214Y-4080500D01*
X1726786Y-4066214D01*
X1769643Y-4066214D01*
X1798214Y-4080500D01*
X1812500Y-4109071D01*
X1812500Y-4266214D01*
X1812500Y-4109071D02*
X1826786Y-4080500D01*
X1855357Y-4066214D01*
X1898214Y-4066214D01*
X1926786Y-4080500D01*
X1941071Y-4109071D01*
X1941071Y-4266214D01*
X2526786Y-3951929D02*
X2269643Y-4337643D01*
X2912500Y-3966214D02*
X2941071Y-3966214D01*
X2969643Y-3980500D01*
X2983928Y-3994786D01*
X2998214Y-4023357D01*
X3012500Y-4080500D01*
X3012500Y-4151929D01*
X2998214Y-4209072D01*
X2983928Y-4237643D01*
X2969643Y-4251929D01*
X2941071Y-4266214D01*
X2912500Y-4266214D01*
X2883928Y-4251929D01*
X2869643Y-4237643D01*
X2855357Y-4209072D01*
X2841071Y-4151929D01*
X2841071Y-4080500D01*
X2855357Y-4023357D01*
X2869643Y-3994786D01*
X2883928Y-3980500D01*
X2912500Y-3966214D01*
X3141071Y-4237643D02*
X3155357Y-4251929D01*
X3141071Y-4266214D01*
X3126786Y-4251929D01*
X3141071Y-4237643D01*
X3141071Y-4266214D01*
X3441071Y-4266214D02*
X3269643Y-4266214D01*
X3355357Y-4266214D02*
X3355357Y-3966214D01*
X3326786Y-4009071D01*
X3298214Y-4037643D01*
X3269643Y-4051929D01*
X3541071Y-3966214D02*
X3726786Y-3966214D01*
X3626786Y-4080500D01*
X3669643Y-4080500D01*
X3698214Y-4094786D01*
X3712500Y-4109071D01*
X3726786Y-4137643D01*
X3726786Y-4209072D01*
X3712500Y-4237643D01*
X3698214Y-4251929D01*
X3669643Y-4266214D01*
X3583928Y-4266214D01*
X3555357Y-4251929D01*
X3541071Y-4237643D01*
X3898214Y-4094786D02*
X3869643Y-4080500D01*
X3855357Y-4066214D01*
X3841071Y-4037643D01*
X3841071Y-4023357D01*
X3855357Y-3994786D01*
X3869643Y-3980500D01*
X3898214Y-3966214D01*
X3955357Y-3966214D01*
X3983928Y-3980500D01*
X3998214Y-3994786D01*
X4012500Y-4023357D01*
X4012500Y-4037643D01*
X3998214Y-4066214D01*
X3983928Y-4080500D01*
X3955357Y-4094786D01*
X3898214Y-4094786D01*
X3869643Y-4109071D01*
X3855357Y-4123357D01*
X3841071Y-4151929D01*
X3841071Y-4209072D01*
X3855357Y-4237643D01*
X3869643Y-4251929D01*
X3898214Y-4266214D01*
X3955357Y-4266214D01*
X3983928Y-4251929D01*
X3998214Y-4237643D01*
X4012500Y-4209072D01*
X4012500Y-4151929D01*
X3998214Y-4123357D01*
X3983928Y-4109071D01*
X3955357Y-4094786D01*
X4126786Y-3966214D02*
X4126786Y-4023357D01*
X4241071Y-3966214D02*
X4241071Y-4023357D01*
X4683928Y-4380500D02*
X4669643Y-4366214D01*
X4641071Y-4323357D01*
X4626786Y-4294786D01*
X4612500Y-4251929D01*
X4598214Y-4180500D01*
X4598214Y-4123357D01*
X4612500Y-4051929D01*
X4626786Y-4009071D01*
X4641071Y-3980500D01*
X4669643Y-3937643D01*
X4683928Y-3923357D01*
X4926786Y-4066214D02*
X4926786Y-4266214D01*
X4855357Y-3951929D02*
X4783928Y-4166214D01*
X4969643Y-4166214D01*
X5312500Y-4266214D02*
X5312500Y-3966214D01*
X5441071Y-4266214D02*
X5441071Y-4109071D01*
X5426786Y-4080500D01*
X5398214Y-4066214D01*
X5355357Y-4066214D01*
X5326786Y-4080500D01*
X5312500Y-4094786D01*
X5626786Y-4266214D02*
X5598214Y-4251929D01*
X5583928Y-4237643D01*
X5569643Y-4209072D01*
X5569643Y-4123357D01*
X5583928Y-4094786D01*
X5598214Y-4080500D01*
X5626786Y-4066214D01*
X5669643Y-4066214D01*
X5698214Y-4080500D01*
X5712500Y-4094786D01*
X5726786Y-4123357D01*
X5726786Y-4209072D01*
X5712500Y-4237643D01*
X5698214Y-4251929D01*
X5669643Y-4266214D01*
X5626786Y-4266214D01*
X5898214Y-4266214D02*
X5869643Y-4251929D01*
X5855357Y-4223357D01*
X5855357Y-3966214D01*
X6126786Y-4251929D02*
X6098214Y-4266214D01*
X6041071Y-4266214D01*
X6012500Y-4251929D01*
X5998214Y-4223357D01*
X5998214Y-4109071D01*
X6012500Y-4080500D01*
X6041071Y-4066214D01*
X6098214Y-4066214D01*
X6126786Y-4080500D01*
X6141071Y-4109071D01*
X6141071Y-4137643D01*
X5998214Y-4166214D01*
X6255357Y-4251929D02*
X6283928Y-4266214D01*
X6341071Y-4266214D01*
X6369643Y-4251929D01*
X6383928Y-4223357D01*
X6383928Y-4209072D01*
X6369643Y-4180500D01*
X6341071Y-4166214D01*
X6298214Y-4166214D01*
X6269643Y-4151929D01*
X6255357Y-4123357D01*
X6255357Y-4109071D01*
X6269643Y-4080500D01*
X6298214Y-4066214D01*
X6341071Y-4066214D01*
X6369643Y-4080500D01*
X6483928Y-4380500D02*
X6498214Y-4366214D01*
X6526786Y-4323357D01*
X6541071Y-4294786D01*
X6555357Y-4251929D01*
X6569643Y-4180500D01*
X6569643Y-4123357D01*
X6555357Y-4051929D01*
X6541071Y-4009071D01*
X6526786Y-3980500D01*
X6498214Y-3937643D01*
X6483928Y-3923357D01*
M02*
